<?xml version="1.0" standalone="no"?>
<!DOCTYPE svg PUBLIC "-//W3C//DTD SVG 1.1//EN" "http://www.w3.org/Graphics/SVG/1.1/DTD/svg11.dtd" >
<svg xmlns="http://www.w3.org/2000/svg">
<metadata>
This is a custom SVG font generated by IcoMoon.
0
</metadata>
<defs>
<font id="EBI-Generic" horiz-adv-x="512" >
<font-face units-per-em="512" ascent="480" descent="-32" />
<missing-glyph horiz-adv-x="512" />
<glyph unicode="&#x71;" d="M 474.752,321.648 C 475.072,318.896 475.28,316.192 475.28,313.648 L 475.28,9.648 C 475.28-12.352 457.28-30.352 435.28-30.352 L 148.48-30.352 L 281.744,121.92 L 302.816,146.016 L 278.736,167.072 L 222.128,216.592 L 198.048,237.664 L 176.976,213.584 L 87.872,111.776 L 64.32,129.44 L 38.72,148.608 L 27.28,133.376 L 27.28,441.648 C 27.28,463.648 45.28,481.648 67.28,481.648 L 307.28,481.648 C 309.824,481.648 312.528,481.44 315.28,481.104 L 315.28,321.648 L 318.048,321.648 L 348.208,321.648 L 474.752,321.648 ZM 103.088-33.632L0.00,43.696L 45.12,103.824L 92.416,68.368L 201.04,192.512L 257.648,143.008 	zM 348.208,354.56 L 348.208,471.328 C 358.896,466.416 368.72,460.208 375.552,453.36 L 447.008,381.92 C 453.856,375.072 460.048,365.248 464.96,354.56 L 348.208,354.56 Z" />
<glyph unicode="&#x51;" d="M 349.344,352.928 L 349.344,469.696 C 360.032,464.784 369.856,458.576 376.688,451.728 L 448.144,380.288 C 454.992,373.44 461.184,363.616 466.096,352.928 L 349.344,352.928 ZM 349.344,320.00 L 475.888,320.00 C 476.208,317.248 476.416,314.56 476.416,312.00 L 476.416,8.00 C 476.416-14.00 458.416-32.00 436.416-32.00 L 68.416-32.00 C 46.416-32.00 28.416-14.00 28.416,8.00 L 28.416,440.00 C 28.416,462.00 46.416,480.00 68.416,480.00 L 308.416,480.00 C 310.976,480.00 313.664,479.792 316.416,479.456 L 316.416,320.00 L 319.184,320.00 L 349.344,320.00 Z" />
<glyph unicode="&#x26;" d="M 340.941,339.917c0.00,11.93, 9.677,21.589, 21.623,21.589c 11.913,0.00, 21.589-9.66, 21.589-21.589
				c0.00-11.947-9.66-21.606-21.589-21.606C 350.618,318.31, 340.941,327.987, 340.941,339.917L 340.941,339.917zM 444.075,339.917c0.00,11.93, 9.643,21.589, 21.606,21.589c 11.878,0.00, 21.606-9.66, 21.606-21.589
				c0.00-11.947-9.711-21.606-21.606-21.606C 453.717,318.31, 444.075,327.987, 444.075,339.917L 444.075,339.917zM 340.941,281.958c0.00,11.93, 9.677,21.606, 21.623,21.606c 11.913,0.00, 21.589-9.66, 21.589-21.606
				s-9.66-21.606-21.589-21.606C 350.618,260.335, 340.941,270.012, 340.941,281.958L 340.941,281.958zM 444.075,281.958c0.00,11.93, 9.643,21.606, 21.606,21.606c 11.878,0.00, 21.606-9.66, 21.606-21.606
				s-9.711-21.606-21.606-21.606C 453.717,260.335, 444.075,270.012, 444.075,281.958L 444.075,281.958zM 340.941,223.983c0.00,11.93, 9.677,21.606, 21.623,21.606c 11.913,0.00, 21.589-9.66, 21.589-21.606
				c0.00-11.913-9.66-21.589-21.589-21.589C 350.618,202.377, 340.941,212.07, 340.941,223.983L 340.941,223.983zM 444.075,223.983c0.00,11.93, 9.643,21.606, 21.606,21.606c 11.878,0.00, 21.606-9.66, 21.606-21.606
				c0.00-11.913-9.711-21.589-21.606-21.589C 453.717,202.377, 444.075,212.07, 444.075,223.983L 444.075,223.983zM 340.941,166.042c0.00,11.895, 9.677,21.572, 21.623,21.572c 11.913,0.00, 21.589-9.66, 21.589-21.572
				c0.00-11.93-9.66-21.606-21.589-21.606C 350.618,144.435, 340.941,154.095, 340.941,166.042L 340.941,166.042zM 444.075,166.042c0.00,11.895, 9.643,21.572, 21.606,21.572c 11.878,0.00, 21.606-9.66, 21.606-21.572
				c0.00-11.93-9.711-21.606-21.606-21.606C 453.717,144.435, 444.075,154.095, 444.075,166.042L 444.075,166.042zM 340.941,108.032c0.00,11.947, 9.677,21.641, 21.623,21.641c 11.913,0.00, 21.589-9.677, 21.589-21.641
				c0.00-11.93-9.66-21.572-21.589-21.572C 350.618,86.46, 340.941,96.102, 340.941,108.032L 340.941,108.032zM 444.075,108.032c0.00,11.947, 9.643,21.641, 21.606,21.641c 11.878,0.00, 21.606-9.677, 21.606-21.641
				c0.00-11.93-9.711-21.572-21.606-21.572C 453.717,86.46, 444.075,96.102, 444.075,108.032L 444.075,108.032zM 31.642,108.032c0.00,11.947, 9.677,21.641, 21.606,21.641s 21.589-9.677, 21.589-21.641c0.00-11.93-9.66-21.572-21.589-21.572
				S 31.642,96.102, 31.642,108.032L 31.642,108.032zM 237.841,455.851c0.00,11.93, 9.694,21.589, 21.623,21.589c 11.878,0.00, 21.606-9.66, 21.606-21.589s-9.711-21.606-21.606-21.606
			C 247.535,434.244, 237.841,443.921, 237.841,455.851L 237.841,455.851zM 237.841,455.851c0.00,11.93, 9.694,21.589, 21.623,21.589c 11.878,0.00, 21.606-9.66, 21.606-21.589s-9.711-21.606-21.606-21.606
			C 247.535,434.244, 237.841,443.921, 237.841,455.851L 237.841,455.851zM 237.841-7.902c0.00,11.964, 9.694,21.641, 21.623,21.641c 11.878,0.00, 21.606-9.66, 21.606-21.641
			c0.00-11.895-9.711-21.572-21.606-21.572C 247.535-29.474, 237.841-19.797, 237.841-7.902L 237.841-7.902zM 237.841-7.902c0.00,11.964, 9.694,21.641, 21.623,21.641c 11.878,0.00, 21.606-9.66, 21.606-21.641
			c0.00-11.895-9.711-21.572-21.606-21.572C 247.535-29.474, 237.841-19.797, 237.841-7.902L 237.841-7.902zM 289.382,426.854c0.00,11.947, 9.677,21.606, 21.606,21.606c 11.93,0.00, 21.606-9.643, 21.606-21.606
			c0.00-11.913-9.66-21.589-21.606-21.589C 299.059,405.265, 289.382,414.942, 289.382,426.854L 289.382,426.854zM 186.30,426.854c0.00,11.947, 9.66,21.606, 21.589,21.606c 11.93,0.00, 21.623-9.643, 21.623-21.606
			c0.00-11.913-9.677-21.589-21.623-21.589C 195.959,405.265, 186.30,414.942, 186.30,426.854L 186.30,426.854zM 289.382,21.111c0.00,11.913, 9.677,21.589, 21.606,21.589c 11.93,0.00, 21.606-9.66, 21.606-21.589
			c0.00-11.947-9.66-21.623-21.606-21.623C 299.059-0.495, 289.382,9.165, 289.382,21.111L 289.382,21.111zM 186.30,21.111c0.00,11.913, 9.66,21.589, 21.589,21.589c 11.93,0.00, 21.623-9.66, 21.623-21.589
			c0.00-11.947-9.677-21.623-21.623-21.623C 195.959-0.495, 186.30,9.165, 186.30,21.111L 186.30,21.111zM 237.841,397.875c0.00,11.93, 9.694,21.606, 21.623,21.606c 11.878,0.00, 21.606-9.677, 21.606-21.606s-9.711-21.606-21.606-21.606
			C 247.535,376.286, 237.841,385.963, 237.841,397.875L 237.841,397.875zM 340.941,397.875c0.00,11.93, 9.677,21.606, 21.623,21.606c 11.913,0.00, 21.589-9.677, 21.589-21.606s-9.66-21.606-21.589-21.606
			C 350.618,376.286, 340.941,385.963, 340.941,397.875L 340.941,397.875zM 134.741,397.875c0.00,11.93, 9.66,21.606, 21.589,21.606c 11.947,0.00, 21.623-9.677, 21.623-21.606S 168.26,376.286, 156.314,376.286
			C 144.401,376.286, 134.741,385.963, 134.741,397.875L 134.741,397.875zM 237.841,50.074c0.00,11.964, 9.694,21.641, 21.623,21.641c 11.878,0.00, 21.606-9.66, 21.606-21.641
			c0.00-11.878-9.711-21.606-21.606-21.606C 247.535,28.467, 237.841,38.178, 237.841,50.074L 237.841,50.074zM 340.941,50.074c0.00,11.964, 9.677,21.641, 21.623,21.641c 11.913,0.00, 21.589-9.66, 21.589-21.641
			c0.00-11.878-9.66-21.606-21.589-21.606C 350.618,28.467, 340.941,38.178, 340.941,50.074L 340.941,50.074zM 134.741,50.074c0.00,11.964, 9.66,21.641, 21.589,21.641c 11.947,0.00, 21.623-9.66, 21.623-21.641
			c0.00-11.878-9.66-21.606-21.623-21.606C 144.401,28.467, 134.741,38.178, 134.741,50.074L 134.741,50.074zM 289.382,368.896c0.00,11.93, 9.677,21.606, 21.606,21.606c 11.93,0.00, 21.606-9.66, 21.606-21.606
			c0.00-11.913-9.66-21.572-21.606-21.572C 299.059,347.324, 289.382,356.983, 289.382,368.896L 289.382,368.896zM 392.499,368.896c0.00,11.93, 9.66,21.606, 21.589,21.606c 11.947,0.00, 21.623-9.66, 21.623-21.606
			c0.00-11.913-9.66-21.572-21.623-21.572C 402.159,347.324, 392.499,356.983, 392.499,368.896L 392.499,368.896zM 186.30,368.896c0.00,11.93, 9.66,21.606, 21.589,21.606c 11.93,0.00, 21.623-9.66, 21.623-21.606
			c0.00-11.913-9.677-21.572-21.623-21.572C 195.959,347.324, 186.30,356.983, 186.30,368.896L 186.30,368.896zM 83.166,368.896c0.00,11.93, 9.677,21.606, 21.623,21.606c 11.913,0.00, 21.589-9.66, 21.589-21.606
			c0.00-11.913-9.66-21.572-21.589-21.572C 92.843,347.324, 83.166,356.983, 83.166,368.896L 83.166,368.896zM 289.382,310.938c0.00,11.913, 9.677,21.606, 21.606,21.606c 11.93,0.00, 21.606-9.677, 21.606-21.606
			c0.00-11.93-9.66-21.606-21.606-21.606C 299.059,289.331, 289.382,299.008, 289.382,310.938L 289.382,310.938zM 392.499,310.938c0.00,11.913, 9.66,21.589, 21.589,21.589c 11.947,0.00, 21.623-9.677, 21.623-21.589
			c0.00-11.93-9.66-21.606-21.623-21.606C 402.159,289.331, 392.499,299.008, 392.499,310.938L 392.499,310.938zM 186.30,310.938c0.00,11.913, 9.66,21.606, 21.589,21.606c 11.93,0.00, 21.623-9.677, 21.623-21.606
			c0.00-11.93-9.677-21.606-21.623-21.606C 195.959,289.331, 186.30,299.008, 186.30,310.938L 186.30,310.938zM 83.166,310.938c0.00,11.913, 9.677,21.589, 21.623,21.589c 11.913,0.00, 21.589-9.677, 21.589-21.589
			c0.00-11.93-9.66-21.606-21.589-21.606C 92.843,289.331, 83.166,299.008, 83.166,310.938L 83.166,310.938zM 289.382,252.962c0.00,11.93, 9.677,21.606, 21.606,21.606c 11.93,0.00, 21.606-9.66, 21.606-21.606
			s-9.66-21.606-21.606-21.606C 299.059,231.356, 289.382,241.033, 289.382,252.962L 289.382,252.962zM 392.499,252.962c0.00,11.93, 9.66,21.606, 21.589,21.606c 11.947,0.00, 21.623-9.66, 21.623-21.606s-9.66-21.606-21.623-21.606
			C 402.159,231.356, 392.499,241.033, 392.499,252.962L 392.499,252.962zM 186.30,252.962c0.00,11.93, 9.66,21.606, 21.589,21.606c 11.93,0.00, 21.623-9.66, 21.623-21.606
			s-9.677-21.606-21.623-21.606C 195.959,231.356, 186.30,241.033, 186.30,252.962L 186.30,252.962zM 83.166,252.962c0.00,11.93, 9.677,21.606, 21.623,21.606c 11.913,0.00, 21.589-9.66, 21.589-21.606s-9.66-21.606-21.589-21.606
			C 92.843,231.356, 83.166,241.033, 83.166,252.962L 83.166,252.962zM 289.382,195.004c0.00,11.93, 9.677,21.589, 21.606,21.589c 11.93,0.00, 21.606-9.66, 21.606-21.589
			c0.00-11.913-9.66-21.589-21.606-21.589C 299.059,173.414, 289.382,183.091, 289.382,195.004L 289.382,195.004zM 392.499,195.004c0.00,11.93, 9.66,21.589, 21.589,21.589c 11.947,0.00, 21.623-9.66, 21.623-21.589
			c0.00-11.913-9.66-21.589-21.623-21.589C 402.159,173.414, 392.499,183.091, 392.499,195.004L 392.499,195.004zM 186.30,195.004c0.00,11.93, 9.66,21.589, 21.589,21.589c 11.93,0.00, 21.623-9.66, 21.623-21.589
			c0.00-11.913-9.677-21.589-21.623-21.589C 195.959,173.414, 186.30,183.091, 186.30,195.004L 186.30,195.004zM 83.166,195.004c0.00,11.93, 9.677,21.589, 21.623,21.589c 11.913,0.00, 21.589-9.66, 21.589-21.589
			c0.00-11.913-9.66-21.589-21.589-21.589C 92.843,173.414, 83.166,183.091, 83.166,195.004L 83.166,195.004zM 289.382,137.011c0.00,11.981, 9.677,21.623, 21.606,21.623c 11.93,0.00, 21.606-9.626, 21.606-21.623
			c0.00-11.913-9.66-21.589-21.606-21.589C 299.059,115.439, 289.382,125.099, 289.382,137.011L 289.382,137.011zM 392.499,137.011c0.00,11.981, 9.66,21.623, 21.589,21.623c 11.947,0.00, 21.623-9.626, 21.623-21.623
			c0.00-11.913-9.66-21.589-21.623-21.589C 402.159,115.439, 392.499,125.099, 392.499,137.011L 392.499,137.011zM 186.30,137.011c0.00,11.981, 9.66,21.623, 21.589,21.623c 11.93,0.00, 21.623-9.626, 21.623-21.623
			c0.00-11.913-9.677-21.589-21.623-21.589C 195.959,115.439, 186.30,125.099, 186.30,137.011L 186.30,137.011zM 83.166,137.011c0.00,11.981, 9.677,21.623, 21.623,21.623c 11.913,0.00, 21.589-9.626, 21.589-21.623
			c0.00-11.913-9.66-21.589-21.589-21.589C 92.843,115.439, 83.166,125.099, 83.166,137.011L 83.166,137.011zM 289.382,79.07c0.00,11.93, 9.677,21.623, 21.606,21.623c 11.93,0.00, 21.606-9.677, 21.606-21.623
			c0.00-11.913-9.66-21.589-21.606-21.589C 299.059,57.481, 289.382,67.157, 289.382,79.07L 289.382,79.07zM 392.499,79.07c0.00,11.93, 9.66,21.623, 21.589,21.623c 11.947,0.00, 21.623-9.677, 21.623-21.623
			c0.00-11.913-9.66-21.589-21.623-21.589C 402.159,57.481, 392.499,67.157, 392.499,79.07L 392.499,79.07zM 186.30,79.07c0.00,11.93, 9.66,21.623, 21.589,21.623c 11.93,0.00, 21.623-9.677, 21.623-21.623
			c0.00-11.913-9.677-21.589-21.623-21.589C 195.959,57.481, 186.30,67.157, 186.30,79.07L 186.30,79.07zM 83.166,79.07c0.00,11.93, 9.677,21.623, 21.623,21.623c 11.913,0.00, 21.589-9.677, 21.589-21.623
			c0.00-11.913-9.66-21.589-21.589-21.589C 92.843,57.481, 83.166,67.157, 83.166,79.07L 83.166,79.07zM 237.841,339.917c0.00,11.93, 9.694,21.589, 21.623,21.589c 11.878,0.00, 21.606-9.66, 21.606-21.589
			c0.00-11.947-9.711-21.606-21.606-21.606C 247.535,318.31, 237.841,327.987, 237.841,339.917L 237.841,339.917zM 134.741,339.917c0.00,11.93, 9.66,21.589, 21.589,21.589c 11.947,0.00, 21.623-9.66, 21.623-21.589
			c0.00-11.947-9.66-21.606-21.623-21.606C 144.401,318.31, 134.741,327.987, 134.741,339.917L 134.741,339.917zM 31.642,339.917c0.00,11.93, 9.677,21.589, 21.606,21.589s 21.589-9.66, 21.589-21.589c0.00-11.947-9.66-21.606-21.589-21.606
			S 31.642,327.987, 31.642,339.917L 31.642,339.917zM 237.841,281.958c0.00,11.93, 9.694,21.606, 21.623,21.606c 11.878,0.00, 21.606-9.66, 21.606-21.606
			s-9.711-21.606-21.606-21.606C 247.535,260.335, 237.841,270.012, 237.841,281.958L 237.841,281.958zM 134.741,281.958c0.00,11.93, 9.66,21.606, 21.589,21.606c 11.947,0.00, 21.623-9.66, 21.623-21.606s-9.66-21.606-21.623-21.606
			C 144.401,260.335, 134.741,270.012, 134.741,281.958L 134.741,281.958zM 31.642,281.958c0.00,11.93, 9.677,21.606, 21.606,21.606s 21.589-9.66, 21.589-21.606s-9.66-21.606-21.589-21.606
			S 31.642,270.012, 31.642,281.958L 31.642,281.958zM 237.841,223.983c0.00,11.93, 9.694,21.606, 21.623,21.606c 11.878,0.00, 21.606-9.66, 21.606-21.606
			c0.00-11.913-9.711-21.589-21.606-21.589C 247.535,202.377, 237.841,212.07, 237.841,223.983L 237.841,223.983zM 134.741,223.983c0.00,11.93, 9.66,21.606, 21.589,21.606c 11.947,0.00, 21.623-9.66, 21.623-21.606
			c0.00-11.913-9.66-21.589-21.623-21.589C 144.401,202.377, 134.741,212.07, 134.741,223.983L 134.741,223.983zM 31.642,223.983c0.00,11.93, 9.677,21.606, 21.606,21.606s 21.589-9.66, 21.589-21.606c0.00-11.913-9.66-21.589-21.589-21.589
			S 31.642,212.07, 31.642,223.983L 31.642,223.983zM 237.841,166.042c0.00,11.895, 9.694,21.572, 21.623,21.572c 11.878,0.00, 21.606-9.66, 21.606-21.572
			c0.00-11.93-9.711-21.606-21.606-21.606C 247.535,144.435, 237.841,154.095, 237.841,166.042L 237.841,166.042zM 134.741,166.042c0.00,11.895, 9.66,21.572, 21.589,21.572c 11.947,0.00, 21.623-9.66, 21.623-21.572
			c0.00-11.93-9.66-21.606-21.623-21.606C 144.401,144.435, 134.741,154.095, 134.741,166.042L 134.741,166.042zM 31.642,166.042c0.00,11.895, 9.677,21.572, 21.606,21.572s 21.589-9.66, 21.589-21.572c0.00-11.93-9.66-21.606-21.589-21.606
			S 31.642,154.095, 31.642,166.042L 31.642,166.042zM 237.841,108.032c0.00,11.947, 9.694,21.641, 21.623,21.641c 11.878,0.00, 21.606-9.677, 21.606-21.641
			c0.00-11.93-9.711-21.572-21.606-21.572C 247.535,86.46, 237.841,96.102, 237.841,108.032L 237.841,108.032zM 134.741,108.032c0.00,11.947, 9.66,21.641, 21.589,21.641c 11.947,0.00, 21.623-9.677, 21.623-21.641
			c0.00-11.93-9.66-21.572-21.623-21.572C 144.401,86.46, 134.741,96.102, 134.741,108.032L 134.741,108.032z" />
<glyph unicode="&#x56;" d="M 483.264,394.448C 413.68,404.448, 336.832,410.00, 256.00,410.00S 98.32,404.448, 28.736,394.448C 15.408,342.272, 8.00,284.608, 8.00,224.00
	s 7.408-118.272, 20.736-170.448c 69.584-10.00, 146.432-15.552, 227.264-15.552s 157.68,5.552, 227.264,15.552C 496.592,105.728, 504.00,163.392, 504.00,224.00
	S 496.592,342.272, 483.264,394.448z M 194.00,131.008L 194.00,316.992 L 348.992,224.00L 194.00,131.008z" />
<glyph unicode="&#x74;" d="M 176.00,384.00c0.00-44.192, 35.808-80.00, 80.00-80.00s 80.00,35.808, 80.00,80.00s-35.808,80.00-80.00,80.00S 176.00,428.192, 176.00,384.00z M 504.992,99.984l-128.00,160.00
	c-6.336,7.888-15.616,12.00-24.992,12.00L 352.00,272.00 L 160.00,272.00 l0.00,0.00c-9.376,0.00-18.672-4.112-24.992-12.00l-128.00-160.00c-8.384-10.496-9.344-25.12-2.336-36.624
	c 5.888-9.664, 16.32-15.36, 27.328-15.36c 2.08,0.00, 4.192,0.208, 6.288,0.624L 128.00,66.56l0.00-98.544 l 256.00,0.00 L 384.00,66.56 l 89.728-17.952
	c 2.096-0.416, 4.192-0.624, 6.288-0.624c 11.008,0.00, 21.456,5.696, 27.328,15.36C 514.32,74.848, 513.392,89.488, 504.992,99.984z M 352.00,138.256
	l-25.728,5.136c-17.328,3.488-34.192-7.76-37.648-25.104c-3.472-17.312, 7.776-34.192, 25.104-37.648L 352.00,72.976L 352.00,48.00 l-96.00-32.00l-96.00,32.00l0.00,24.976 
	l 38.272,7.648c 17.328,3.472, 28.576,20.336, 25.104,37.648c-3.472,17.344-20.32,28.56-37.648,25.104L 160.00,138.256L 160.00,208.00 l 96.00-32.00l 96.00,32.00L 352.00,138.256 z" />
<glyph unicode="&#x37;" d="M 479.376-12.512l-29.168,29.376l 25.568,0.00 l0.00,18.368 l-43.808,0.00 l-28.672,28.88c 18.16,5.52, 31.568,22.272, 31.568,42.16L 427.456,379.04
	c0.00,2.80-0.288,5.536-0.80,8.208c-2.688,35.696-73.104,80.288-168.752,80.288c-95.76,0.00-166.256-44.688-168.768-80.416
	C 88.64,384.496, 88.336,381.792, 88.336,379.04L 80.976,106.272c0.00-19.888, 13.392-36.624, 31.568-42.16l-28.432-28.88L 40.944,35.232 l0.00-18.368 l 25.088,0.00 l-28.896-29.376
	L 2.352-12.512 l0.00-23.024 l 12.112,0.00 l 41.264,0.00 L 460.32-35.536 l 41.92,0.00 l 12.128,0.00 l0.00,23.024 L 479.376-12.512 z M 110.448,298.00L 110.448,342.192 c0.00,8.112, 6.64,14.736, 14.752,14.736l 265.408,0.00 
	c 8.096,0.00, 14.736-6.624, 14.736-14.736l0.00-44.192 c0.00-8.112-6.64-14.736-14.736-14.736L 125.20,283.264 C 117.088,283.248, 110.448,289.872, 110.448,298.00z
	 M 292.16,194.128c0.00-18.656-15.136-33.776-33.808-33.776c-18.656,0.00-33.792,15.12-33.792,33.776c0.00,18.672, 15.136,33.792, 33.792,33.792
	C 277.008,227.92, 292.16,212.80, 292.16,194.128z M 152.144,62.032l 211.488,0.00 l 26.56-26.80L 125.664,35.232 L 152.144,62.032z M 78.48-12.512l 29.008,29.376l 300.912,0.00 
	l 29.088-29.376L 78.48-12.512 z" />
<glyph unicode="&#x34;" d="M 505.088,173.04 C 508.896,170.832 512.00,165.408 512.00,161.008 L 512.00,134.336 C 512.00,129.936 508.496,127.216 504.24,128.272 L 288.00,182.336 L 288.00,69.008 L 294.944,62.336 L 297.072,60.304 L 346.224,13.184 C 349.408,10.144 352.00,4.064 352.00-0.336 L 352.00-25.664 C 352.00-30.048 348.992-31.664 345.344-29.232 L 256.00,30.336 L 166.656-29.232 C 163.008-31.664 160.00-30.048 160.00-25.664 L 160.00-0.336 C 160.00,4.08 162.592,10.16 165.776,13.184 L 214.928,60.304 L 217.056,62.336 L 224.00,69.008 L 224.00,182.336 L 7.76,128.272 C 3.488,127.216 0.00,129.936 0.00,134.336 L 0.00,161.008 C 0.00,165.408 3.12,170.832 6.912,173.04 L 224.00,299.696 L 224.00,399.152 C 224.00,416.752 230.432,444.032 238.304,459.792 L 241.68,466.544 C 249.552,482.288 262.432,482.288 270.304,466.544 L 273.68,459.792 C 281.568,444.032 288.00,416.752 288.00,399.152 L 288.00,299.696 L 505.088,173.04 Z" />
<glyph unicode="&#x36;" d="M 403.68,246.944 C 405.088,245.904 405.472,243.808 404.496,242.32 L 394.608,226.976 C 393.664,225.504 391.568,224.896 390.00,225.712 L 314.912,262.976 C 313.344,263.792 310.976,265.36 309.632,266.544 L 286.16,287.152 C 284.816,288.336 283.168,287.968 282.448,286.336 L 258.928,233.616 C 258.208,231.984 258.304,229.392 259.12,227.824 L 304.08,142.432 C 304.896,140.864 305.728,138.144 305.952,136.384 L 324.336-15.44 C 324.576-17.184 323.312-18.864 321.568-19.152 L 299.136-22.912 C 297.408-23.20 295.584-22.064 295.104-20.384 L 258.512,107.76 C 258.032,109.456 256.688,111.888 255.504,113.20 L 221.392,151.536 C 220.224,152.88 218.688,152.624 217.984,150.992 L 139.024-30.08 C 138.304-31.712 136.416-32.432 134.80-31.712 L 109.12-20.32 C 107.504-19.60 106.608-17.616 107.088-15.936 L 170.448,203.648 C 170.928,205.344 170.544,207.888 169.568,209.376 L 163.536,218.448 C 162.56,219.92 162.08,222.512 162.432,224.24 L 185.04,328.256 C 185.408,329.984 184.272,331.392 182.496,331.392 L 151.488,331.392 C 149.712,331.392 148.144,329.936 147.968,328.192 L 138.992,238.64 C 138.816,236.88 137.248,235.44 135.472,235.44 L 117.92,235.44 C 116.144,235.44 114.704,236.88 114.704,238.64 L 114.704,347.36 C 114.704,349.12 116.032,351.12 117.648,351.84 L 245.088,406.816 C 246.704,407.536 249.296,407.408 250.848,406.56 L 297.952,380.848 C 299.504,380.00 301.264,377.968 301.904,376.304 L 328.40,305.632 C 329.024,303.968 330.672,301.744 332.08,300.704 L 403.68,246.944 ZM 248.032,439.248A40.752,40.752 180.00 1,0 329.536,439.248A40.752,40.752 180.00 1,0 248.032,439.248z" />
<glyph unicode="&#x32;" d="M 505.52,276.72l-11.952,8.592c-3.568,2.592-10.08,4.688-14.48,4.688l-9.232,0.00 c-1.808,5.872-3.76,11.376-5.904,15.872
	l-46.224,97.216C 410.176,419.008, 389.584,432.00, 371.984,432.00L 141.28,432.00 c-17.60,0.00-38.192-12.992-45.728-28.912l-46.24-97.216
	c-2.128-4.496-4.096-10.00-5.904-15.872L 32.928,290.00 c-4.40,0.00-10.928-2.096-14.48-4.688l-11.968-8.592C 2.928,274.128,0.00,268.432,0.00,264.032l0.00-8.992 
	c0.00-4.40, 3.456-8.976, 7.696-10.16l 9.52-2.688C 21.456,240.976, 28.512,240.00, 32.928,240.00l 2.672,0.00 l0.00-128.00 c0.00-16.32, 12.576-29.408, 28.416-31.28L 64.016,40.00 
	C 64.00,26.816, 74.80,16.00, 88.00,16.00l 16.00,0.00 C 117.20,16.00, 128.00,26.816, 128.00,40.00L 128.00,80.00 l 256.00,0.00 l0.00-40.00 c0.00-13.184, 10.80-24.00, 24.00-24.00l 16.00,0.00 c 13.20,0.00, 24.00,10.816, 24.00,24.00l0.00,40.464 
	c 16.464,1.28, 29.664,14.752, 29.664,31.536l0.00,128.00 l 1.408,0.00 c 4.40,0.00, 11.472,0.976, 15.696,2.192l 9.52,2.688C 508.528,246.064, 512.00,250.624, 512.00,255.024
	l0.00,8.992 C 512.00,268.432, 509.072,274.128, 505.52,276.72z M 416.00,148.00c-15.472,0.00-28.00,12.56-28.00,28.00s 12.528,28.00, 28.00,28.00
	s 28.00-12.56, 28.00-28.00S 431.472,148.00, 416.00,148.00z M 76.272,288.128c 0.48,1.248, 0.96,2.752, 1.456,3.808l 46.304,97.312
	C 126.32,394.096, 135.60,400.00, 140.864,400.00l 231.536,0.00 c 5.28,0.00, 14.544-5.904, 16.864-10.72l 46.288-97.376c 0.448-0.944, 0.864-2.288, 1.296-3.376
	c 1.872-4.72, 3.664-10.368, 5.20-16.528l-9.776,0.00 L 79.744,272.00 L 71.232,272.00 C 72.704,278.00, 74.432,283.472, 76.272,288.128z M 96.00,204.00
	c 15.472,0.00, 28.00-12.56, 28.00-28.00S 111.472,148.00, 96.00,148.00S 68.00,160.56, 68.00,176.00S 80.528,204.00, 96.00,204.00z" />
<glyph unicode="&#x31;" d="M 476.144,314.432l-16.288,133.808C 457.728,465.712, 441.60,480.00, 424.00,480.00l-336.00,0.00 C 70.40,480.00, 54.272,465.712, 52.144,448.256l-16.288-133.808
	C 33.728,296.976, 32.00,268.288, 32.00,250.688L 32.00,64.00 c0.00-17.60, 14.40-32.00, 32.00-32.00l0.00-40.00 C 64.00-21.184, 74.80-32.00, 88.00-32.00l 16.00,0.00 C 117.20-32.00, 128.00-21.184, 128.00-8.00L 128.00,32.00 l 256.00,0.00 l0.00-40.00 
	c0.00-13.184, 10.80-24.00, 24.00-24.00l 16.00,0.00 c 13.20,0.00, 24.00,10.816, 24.00,24.00L 448.00,32.00 c 17.60,0.00, 32.00,14.40, 32.00,32.00L 480.00,250.688 C 480.00,268.288, 478.272,296.976, 476.144,314.432z M 96.00,432.00
	c0.00,8.80, 7.20,16.00, 16.00,16.00l 288.00,0.00 c 8.80,0.00, 16.00-7.20, 16.00-16.00l0.00-6.40 c0.00-8.816-7.20-16.00-16.00-16.00L 112.00,409.60 c-8.80,0.00-16.00,7.20-16.00,16.00L 96.00,432.00 z M 98.336,132.00
	c-15.472,0.00-28.00,12.56-28.00,28.00s 12.528,28.00, 28.00,28.00s 28.00-12.56, 28.00-28.00S 113.792,132.00, 98.336,132.00z M 418.336,132.00
	c-15.472,0.00-28.00,12.56-28.00,28.00s 12.528,28.00, 28.00,28.00s 28.00-12.56, 28.00-28.00S 433.792,132.00, 418.336,132.00z M 448.00,224.00L 64.00,224.00 l0.00,26.688 
	c0.00,16.32, 1.664,43.712, 3.632,59.872L 76.56,384.00l 358.88,0.00 l 8.944-73.44C 446.336,294.40, 448.00,267.008, 448.00,250.688L 448.00,224.00 z" />
<glyph unicode="&#x33;" d="M 293.04,184.384L 188.80,244.16c-3.888,2.224-4.656,6.80-1.728,10.208l 49.984,57.76l 109.536-61.968
			c 3.888-2.192, 7.168-0.352, 7.264,4.128l 0.096,5.376c 0.096,4.48-2.688,10.432-6.192,13.232l-88.768,70.928
			c-0.272,0.224-0.624,0.096-0.912,0.256c-0.352,1.152-0.352,2.416-1.12,3.328l-32.416,39.616c-2.832,3.456-7.168,3.248-9.648-0.48
			l-85.52-129.264c-2.48-3.76-3.568-10.336-2.416-14.688l 6.928-26.192c 1.152-4.352, 5.52-9.152, 9.728-10.688l 100.016-36.816
			c 4.208-1.536, 6.464-6.272, 5.024-10.496l-35.808-104.976c-1.44-4.24, 0.128-10.112, 3.488-13.056l 5.088-4.512
			c 3.344-2.976, 7.696-2.08, 9.648,1.936l 65.488,135.232C 298.512,177.04, 296.928,182.16, 293.04,184.384zM 223.456,421.152A48.832,48.832 180.00 1,0 321.12,421.152A48.832,48.832 180.00 1,0 223.456,421.152zM 105.168-14.544C 47.184-14.544,0.00,32.624,0.00,90.608s 47.168,105.152, 105.152,105.152s 105.168-47.168, 105.168-105.152
		S 163.152-14.544, 105.168-14.544z M 105.168,171.184c-44.432,0.00-80.592-36.144-80.592-80.576s 36.144-80.576, 80.592-80.576s 80.592,36.144, 80.592,80.576
		S 149.60,171.184, 105.168,171.184zM 406.848-14.544c-57.984,0.00-105.168,47.168-105.168,105.152s 47.184,105.152, 105.168,105.152c 58.00,0.00, 105.152-47.168, 105.152-105.152
		S 464.848-14.544, 406.848-14.544z M 406.848,171.184c-44.432,0.00-80.592-36.144-80.592-80.576s 36.16-80.576, 80.592-80.576s 80.592,36.144, 80.592,80.576
		S 451.28,171.184, 406.848,171.184z" />
<glyph unicode="&#x54;" d="M 96.00,192.00l 320.00,0.00 c 17.60,0.00, 32.00,14.40, 32.00,32.00L 448.00,416.00 c0.00,17.60-14.40,32.00-32.00,32.00L 96.00,448.00 C 78.416,448.00, 64.00,433.60, 64.00,416.00l0.00-192.00 C 64.00,206.40, 78.416,192.00, 96.00,192.00z M 96.00,416.00l 320.00,0.00 l0.00-192.00 L 96.00,224.00 L 96.00,416.00 zM 507.84,40.32l-55.68,132.192c-2.288,5.44-9.20,9.904-15.36,9.904L 75.20,182.416 c-6.16,0.00-13.072-4.464-15.36-9.904L 4.16,40.32
		C 1.888,34.88,0.00,25.664,0.00,19.808l0.00-9.184 C0.00,4.784, 5.056,0.00, 11.20,0.00l 489.60,0.00 c 6.16,0.00, 11.20,4.784, 11.20,10.624l0.00,9.184 
		C 512.00,25.664, 510.128,34.88, 507.84,40.32z M 192.00,30.40l 8.00,60.816l 112.00,0.00 L 320.00,30.40L 192.00,30.40 z" />
<glyph unicode="&#x3a;" d="M 105.168,214.352 C 103.168,213.68 101.168,213.216 99.44,213.232 L 63.36,213.248 C 58.944,213.248 53.696,216.496 51.696,220.432 L 24.112,275.616 C 22.128,279.52 23.072,285.36 26.208,288.48 L 32.208,294.48 C 35.328,297.60 40.464,297.60 43.584,294.48 L 75.696,262.384 C 78.816,259.264 83.936,259.264 87.056,262.384 L 101.776,277.104 C 104.912,280.24 104.912,285.36 101.776,288.48 L 69.664,320.576 C 66.528,323.664 66.528,328.80 69.664,331.952 L 75.696,337.952 C 78.832,341.072 84.608,342.00 88.576,340.048 L 143.728,312.432 C 147.696,310.48 150.944,305.216 150.944,300.80 L 150.944,264.72 C 150.944,263.008 150.48,261.008 149.808,259.024 L 220.208,188.608 L 130.896,188.608 L 105.168,214.352 ZM 488.704,238.848 C 492.544,234.96 492.544,228.672 488.736,224.816 L 455.968,192.096 C 452.128,188.24 445.84,188.224 441.968,192.096 L 427.92,206.16 C 424.08,209.984 424.08,216.304 427.952,220.128 L 430.288,222.48 L 425.60,227.168 C 423.008,229.712 418.096,232.80 414.64,233.92 L 399.136,239.088 C 395.664,240.224 390.752,243.312 388.176,245.824 L 360.112,273.92 C 357.552,276.48 355.456,281.536 355.44,285.20 L 355.44,297.28 C 341.792,338.16 304.096,328.896 304.096,328.896 C 300.496,329.44 299.344,334.672 299.344,334.672 C 318.016,353.392 386.432,336.288 386.432,336.288 C 389.936,335.392 394.944,332.576 397.52,330.032 L 434.928,292.592 C 437.488,290.048 440.592,285.104 441.696,281.68 L 446.864,266.144 C 448.016,262.72 451.072,257.792 453.584,255.232 L 458.288,250.544 L 460.64,252.896 C 464.496,256.72 470.768,256.72 474.672,252.896 L 488.704,238.848 ZM 462.656,254.224 C 465.008,247.52 472.192,232.672 480.384,216.464 L 456.992,193.104 C 444.464,218.224 430.976,246.224 430.08,251.92 C 429.04,258.464 424.384,259.296 420.464,259.296 L 374.688,259.296 L 360.112,273.904 C 357.552,276.464 355.456,281.52 355.44,285.184 L 355.44,291.52 L 420.464,291.52 C 427.68,291.52 433.632,290.08 438.608,287.856 C 439.936,285.744 441.104,283.504 441.696,281.68 L 446.864,266.144 C 448.016,262.72 451.072,257.792 453.584,255.232 L 458.288,250.544 L 460.64,252.896 C 461.232,253.488 461.968,253.824 462.656,254.224 ZM 343.056,188.608 L 285.424,188.608 C 291.904,193.008 299.808,199.536 305.92,205.60 L 352.608,251.84 L 379.52,224.928 C 379.296,224.656 359.504,205.072 343.056,188.608 ZM 98.72,291.52 L 150.96,291.52 L 150.96,264.72 C 150.96,263.088 150.512,261.20 149.904,259.312 L 91.568,259.312 C 87.632,259.312 82.976,258.48 81.952,251.936 C 81.296,247.76 73.824,231.52 64.944,213.232 L 63.344,213.232 C 58.928,213.232 53.68,216.48 51.68,220.416 L 42.56,238.672 C 46.80,247.632 49.744,254.464 50.128,256.96 C 50.128,256.96 51.936,268.224 60.16,277.888 L 75.68,262.384 C 77.264,260.80 79.312,260.032 81.376,260.032 C 83.424,260.032 85.488,260.80 87.056,262.384 L 101.776,277.104 C 104.896,280.24 104.896,285.36 101.776,288.48 L 98.72,291.536 ZM 331.264,285.20 C 331.312,276.032 335.152,266.352 341.024,259.312 L 279.472,259.312 L 232.544,259.312 L 183.664,259.312 L 175.104,267.888 L 175.104,291.536 L 232.544,291.536 L 279.472,291.536 L 331.264,291.536 L 331.264,285.20 ZM 491.936,193.904l-18.88-18.864c-1.536-1.536-3.184-2.88-4.96-4.08c 3.20-6.304, 5.872-11.552, 7.728-15.152L 36.16,155.808 
	c 3.552,6.928, 10.272,20.064, 17.552,34.672c-9.936,2.864-18.944,9.888-23.648,19.136L 29.12,211.52C 15.392,184.528,0.00,155.808,0.00,155.808l0.00,0.00
	c0.00-1.664,0.00-3.408,0.00-4.816l0.00-160.00 c0.00-8.816, 7.20-16.00, 16.00-16.00l 480.00,0.00 c 8.816,0.00, 16.00,7.184, 16.00,16.00l0.00,160.00 c0.00,1.408,0.00,3.152,0.00,4.816
	C 512.00,155.808, 502.592,173.36, 491.936,193.904z M 356.64,73.456c0.00-24.40-19.856-44.288-44.288-44.288l-112.72,0.00 c-24.416,0.00-44.288,19.872-44.288,44.288
	l0.00,24.16 c0.00,2.224, 1.792,4.032, 4.016,4.032l 32.208,0.00 c 2.224,0.00, 4.016-1.808, 4.016-4.032l0.00-24.16 c0.00-2.144, 1.872-4.032, 4.016-4.032l 112.72,0.00 
	c 2.16,0.00, 4.032,1.888, 4.032,4.032l0.00,24.16 c0.00,2.224, 1.792,4.032, 4.016,4.032l 32.224,0.00 c 2.224,0.00, 4.016-1.808, 4.016-4.032L 356.608,73.456 z" />
<glyph unicode="&#x58;" d="M 489.088,193.312l-192.00,176.16c 44.592,42.608, 91.568,72.416, 127.024,80.416c 3.472,0.784, 6.192,3.504, 7.28,6.928
		c 1.088,3.424, 0.16,7.296-2.256,9.968c-0.72,0.80-1.472,1.616-2.224,2.272C 419.024,476.32, 408.432,480.00, 395.536,480.00
		c-35.408,0.00-87.216-28.672-136.768-75.36l-3.392,3.12c-10.416,9.52-28.048,8.736-37.568-1.616L 205.28,392.464
		c-9.904-10.80-9.168-27.664, 1.632-37.568l 3.376-3.088c-14.784-18.688-27.52-37.76-37.68-56.224l-72.48,0.00 L0.00-32.00l 76.784,0.00 l 23.328,84.08l 93.808,0.00 
		L 219.184-32.00l 79.712,0.00 l-90.128,290.64c 10.976,19.072, 24.416,38.80, 39.84,58.016l 191.984-176.16c 4.944-4.512, 11.312-7.008, 18.00-7.008
		c 7.408,0.00, 14.56,3.12, 19.568,8.592l 12.56,13.664C 500.592,166.544, 499.872,183.392, 489.088,193.312z M 110.816,107.488l 19.44,69.504
		c 5.328,18.96, 10.208,43.744, 15.056,63.184l 0.976,0.00 c 4.864-19.44, 10.688-43.76, 16.528-63.184l 20.416-69.504L 110.816,107.488 z" />
<glyph unicode="&#x27;" d="M 416.00,16.016 L 416.00,249.12 L 448.00,281.12 L 448.00,16.016 C 448.00-10.40 426.40-32.00 400.00-32.00 L 48.00-32.00 C 21.60-32.00 0.00-10.40 0.00,16.016 L 0.00,432.00 C 0.00,458.40 21.60,480.00 48.00,480.00 L 369.376,480.00 L 273.376,384.00 L 32.00,384.00 L 32.00,16.016 C 32.00,7.328 39.328,0.016 48.00,0.016 L 400.00,0.016 C 408.672,0.016 416.00,7.328 416.00,16.016 ZM 120.72,175.936 L 126.384,170.272 L 207.952,88.64 L 200.16,80.80 L 199.552,80.896 C 196.224,78.40 191.696,76.144 188.064,75.68 L 103.968,64.992 C 99.60,64.432 96.48,67.568 97.04,71.936 L 107.712,156.00 C 108.256,160.288 111.168,166.16 114.192,169.312 L 114.192,169.376 L 114.32,169.504 C 114.336,169.536 114.352,169.568 114.384,169.60 L 115.072,170.272 C 115.072,170.272 115.088,170.272 115.104,170.304 L 120.72,175.936 ZM 503.536,425.328 C 514.816,414.048 514.848,395.632 503.552,384.272 L 462.40,343.152 L 375.184,430.368 L 416.272,471.456 C 427.616,482.848 446.192,482.848 457.472,471.52 L 503.536,425.328 ZM 352.176,407.312L 439.44,320.048L 222.368,103.04L 135.12,190.304z" />
<glyph unicode="&#x53;" d="M 411.008,100.00l0.00-31.008 l 31.008,0.00 l0.00-31.008 L 256.00,37.984 l0.00,31.008 l 30.992,0.00 L 286.992,100.00 l-92.992,0.00 L 194.00,379.008 L 504.00,379.008 L 504.00,100.00 L 411.008,100.00 z M 472.992,348.00l-248.00,0.00 
	l0.00-216.992 l 248.00,0.00 L 472.992,348.00 z M 8.00,410.00l 155.008,0.00 l0.00-372.00 L 8.00,38.00 L 8.00,410.00 z M 39.008,131.008l 31.008,0.00 l0.00,31.008 L 39.008,162.016 L 39.008,131.008 z M 39.008,192.992l 31.008,0.00 L 70.016,224.00 L 39.008,224.00 
	L 39.008,192.992 z M 39.008,286.00L 132.00,286.00 l0.00,31.008 L 39.008,317.008 L 39.008,286.00 z M 39.008,348.00L 132.00,348.00 L 132.00,379.008 L 39.008,379.008 L 39.008,348.00 z" />
<glyph unicode="&#x73;" d="M 252.688,471.968C 115.728,470.144, 6.192,357.648, 8.016,220.688c 1.84-136.976, 114.336-246.496, 251.296-244.656
	c 136.96,1.808, 246.48,114.336, 244.672,251.28C 502.144,364.288, 389.632,473.808, 252.688,471.968z M 253.104,439.632
	c 36.944,0.496, 71.824-8.336, 102.432-24.304l-33.376-55.632C 302.192,369.456, 279.728,374.96, 256.00,374.96s-46.192-5.488-66.176-15.264L 156.464,415.296
	C 185.424,430.384, 218.224,439.168, 253.104,439.632z M 120.304,157.824l-55.584-33.36c-15.088,28.96-23.872,61.76-24.336,96.656
	c-0.496,36.928, 8.352,71.808, 24.304,102.416l 55.632-33.376C 110.544,270.192, 105.04,247.728, 105.04,224.00C 105.04,200.256, 110.544,177.808, 120.304,157.824z
	 M 258.896,8.368c-36.944-0.496-71.84,8.336-102.432,24.304l 33.376,55.632c 19.984-9.744, 42.432-15.248, 66.176-15.248
	c 23.728,0.00, 46.192,5.488, 66.16,15.248l 33.36-55.60C 326.56,17.616, 293.76,8.848, 258.896,8.368z M 256.00,105.392
	c-65.504,0.00-118.608,53.088-118.608,118.608c0.00,65.504, 53.104,118.608, 118.608,118.608c 65.504,0.00, 118.608-53.104, 118.608-118.608
	C 374.608,158.48, 321.504,105.392, 256.00,105.392z M 391.68,157.824c 9.76,19.984, 15.264,42.416, 15.264,66.176c0.00,23.728-5.504,46.192-15.264,66.16
	l 55.616,33.36c 15.088-28.96, 23.872-61.76, 24.336-96.64c 0.496-36.944-8.336-71.824-24.304-102.432L 391.68,157.824z" />
<glyph unicode="&#x52;" d="M 132.544,379.568 C 269.264,458.912 529.68,397.232 501.936,382.48 C 383.232,319.312 391.712,189.568 308.576,131.056 C 245.952,86.992 157.616,109.248 106.56,128.256 C 106.56,128.256 71.968,88.656 47.12,35.808 C 38.816,18.096 2.352,37.584 8.752,52.592 C 89.872,242.56 366.032,337.28 366.032,337.28 C 366.032,337.28 171.216,344.768 40.96,190.496 C 37.504,225.744 31.712,321.056 132.544,379.568 Z" />
<glyph unicode="&#x50;" d="M 384.00,400.00c-49.184,0.00-94.032-18.496-128.00-48.912C 222.032,381.504, 177.184,400.00, 128.00,400.00S 33.968,381.504,0.00,351.088l0.00-8.576 l0.00-38.496 l0.00-192.00 l0.00-40.512 l0.00-6.56 
	C 0.336,64.624, 0.672,64.32, 1.024,64.00c 8.208-7.248, 17.024-13.776, 26.384-19.568C 36.848,52.064, 47.168,58.64, 58.192,64.00
	C 79.296,74.256, 102.976,80.00, 128.00,80.00s 48.72-5.744, 69.808-16.00c 11.008-5.36, 21.328-11.936, 30.768-19.568c 1.84-1.504, 3.648-3.024, 5.424-4.592
	c 8.112-7.184, 15.488-15.152, 22.00-23.824c 6.512,8.672, 13.888,16.656, 22.00,23.824c 1.776,1.568, 3.584,3.088, 5.424,4.592
	c 9.424,7.632, 19.744,14.208, 30.768,19.568c 21.104,10.256, 44.784,16.00, 69.808,16.00c 25.008,0.00, 48.72-5.744, 69.808-16.00
	c 11.008-5.36, 21.328-11.936, 30.768-19.568c 9.36,5.776, 18.192,12.32, 26.384,19.568c 0.336,0.32, 0.672,0.624, 1.024,0.944l0.00,6.56 l0.00,40.512 l0.00,192.00 
	L 511.984,342.496 L 511.984,351.088 C 478.032,381.504, 433.184,400.00, 384.00,400.00z M 128.00,112.00c-34.976,0.00-67.76-9.36-96.00-25.712L 32.00,336.00 c 26.736,20.096, 59.984,32.00, 96.00,32.00
	c 36.032,0.00, 69.264-11.92, 96.00-32.016l0.00-249.696 C 195.76,102.64, 162.976,112.00, 128.00,112.00z M 384.00,112.00c-34.976,0.00-67.76-9.36-96.00-25.712L 288.00,335.984 
	C 314.736,356.08, 347.968,368.00, 384.00,368.00c 36.016,0.00, 69.264-11.904, 96.00-32.00l0.00-249.712 C 451.76,102.64, 418.976,112.00, 384.00,112.00z" />
<glyph unicode="&#x70;" d="M 224.992,410.00 L 224.992,192.992 L 441.984,192.992 C 441.984,73.136 344.848-24.00 224.992-24.00 C 105.152-24.00 8.00,73.136 8.00,192.992 C 8.00,312.848 105.152,410.00 224.992,410.00 Z M 287.008,472.00 C 406.864,472.00 504.00,374.848 504.00,255.008 L 287.008,255.008 L 287.008,472.00 Z" />
<glyph unicode="&#x4f;" d="M 495.584,95.936L 422.672,440.944c-1.936,9.232-10.192,15.664-19.696,15.408L 135.696,446.64C 127.12,446.32, 119.776,440.432, 117.60,432.144
	L 21.632,66.48c-1.36-5.184-0.528-10.704, 2.32-15.248c 2.832-4.544, 7.424-7.696, 12.672-8.768l 24.304-4.848
	c 9.632-1.984, 19.168,3.632, 22.256,12.912l 10.496,31.472l 177.648-31.28l-10.592-52.128c-2.112-10.336, 4.40-20.432, 14.672-22.816l 31.584-7.28
	C 308.40-31.824, 309.872-32.00, 311.328-32.00c 3.728,0.00, 7.424,1.072, 10.592,3.136c 4.432,2.864, 7.504,7.424, 8.512,12.608l 28.24,146.688l 72.56-6.736
	l 6.848-33.264c 1.664-8.176, 8.336-14.336, 16.608-15.392l 19.44-2.416c 6.24-0.736, 12.464,1.52, 16.736,6.128
	C 495.104,83.392, 496.864,89.776, 495.584,95.936z M 249.168,156.768l-9.536-46.304l-100.96,15.296l 10.464,46.528l 24.224-3.376l 18.896,83.984
	l-25.056,3.488l 12.32,40.32l 73.472-3.056l-29.712-132.128L 249.168,156.768z M 273.488,341.424c-4.464-19.744-22.16-34.064-42.112-34.064
	c-1.824,0.00-3.68,0.128-5.52,0.384c-10.592,1.472-19.68,7.008-25.632,15.60c-6.112,8.848-8.128,19.728-5.664,30.672
	c 4.848,21.536, 25.728,36.80, 47.616,33.664c 10.576-1.472, 19.664-7.008, 25.616-15.60C 273.888,363.248, 275.92,352.352, 273.488,341.424z M 368.432,170.864
	l 30.352,155.52l 26.72-162.80L 368.432,170.864z" />
<glyph unicode="&#x22;" d="M 345.744,416.096 C 368.288,416.096 386.544,397.824 386.544,375.296 L 386.544,122.32 L 337.584,122.32 L 337.584,252.912 L 304.944,252.912 L 304.944,375.296 C 304.944,397.824 323.216,416.096 345.744,416.096 Z M 231.52,416.096 C 236.016,416.096 239.68,412.432 239.664,407.936 L 239.664,350.816 L 239.664,334.496 C 239.664,327.28 233.264,323.248 226.144,318.176 C 217.168,311.792 207.024,303.744 207.024,285.536 L 207.024,122.32 L 158.064,122.32 L 158.064,285.552 C 158.064,303.76 147.936,311.808 138.944,318.192 C 131.824,323.264 125.44,327.296 125.44,334.512 L 125.44,350.832 L 125.44,407.936 C 125.44,412.432 129.104,416.096 133.60,416.096 C 138.096,416.096 141.76,412.448 141.76,407.936 L 141.76,350.816 C 141.76,348.56 145.424,346.752 149.92,346.752 C 154.416,346.752 158.08,348.576 158.08,350.832 L 158.08,407.936 C 158.08,412.432 161.728,416.096 166.24,416.096 C 170.736,416.096 174.40,412.448 174.40,407.936 L 174.40,350.832 C 174.40,348.576 178.064,346.752 182.56,346.752 C 187.056,346.752 190.72,348.576 190.72,350.832 L 190.72,407.936 C 190.72,412.432 194.384,416.096 198.88,416.096 C 203.376,416.096 207.04,412.448 207.04,407.936 L 207.04,350.832 C 207.04,348.576 210.704,346.752 215.20,346.752 C 219.696,346.752 223.36,348.576 223.36,350.832 L 223.36,407.936 C 223.36,412.432 227.024,416.096 231.52,416.096 ZM 503.84,94.416 C 508.336,94.416 512.00,90.784 512.016,86.256 L 512.016,67.92 C 512.016,63.408 508.352,59.76 503.856,59.76 L 469.376,59.76 C 469.568,58.848 469.872,57.968 469.872,57.04 C 469.872,45.408 444.112,27.792 432.464,27.792 L 79.568,27.792 C 67.92,27.792 42.16,45.392 42.16,57.04 C 42.16,57.968 42.448,58.848 42.656,59.76 L 8.16,59.76 C 3.664,59.76 0.00,63.408 0.00,67.92 L 0.00,86.256 C 0.00,90.768 3.664,94.416 8.16,94.416 L 503.84,94.416 Z" />
<glyph unicode="&#x4e;" d="M 256.00,464.00C 123.456,464.00, 16.00,356.544, 16.00,224.00s 107.456-240.00, 240.00-240.00s 240.00,107.456, 240.00,240.00S 388.544,464.00, 256.00,464.00z M 391.792,144.00c 4.288,20.224, 6.992,41.68, 7.856,64.00
	l 63.728,0.00 c-1.664-22.096-6.816-43.552-15.344-64.00L 391.792,144.00 z M 120.208,304.00c-4.288-20.224-6.992-41.68-7.856-64.00L 48.608,240.00 
	c 1.664,22.096, 6.816,43.552, 15.344,64.00L 120.208,304.00 z M 359.024,304.00c 4.80-20.48, 7.68-41.92, 8.624-64.00L 272.00,240.00 l0.00,64.00 L 359.024,304.00 z M 272.00,336.00L 272.00,429.664 
	c 7.296-2.128, 14.528-5.664, 21.616-10.688c 13.296-9.376, 26.00-23.792, 36.784-41.728c 7.44-12.40, 13.856-26.208, 19.232-41.248L 272.00,336.00z
	 M 181.616,377.248c 10.784,17.936, 23.488,32.352, 36.784,41.744C 225.472,424.00, 232.704,427.552, 240.00,429.68L 240.00,336.00 l-77.632,0.00 
	C 167.744,351.024, 174.176,364.848, 181.616,377.248z M 240.00,304.00l0.00-64.00 L 144.336,240.00 c 0.944,22.08, 3.824,43.52, 8.624,64.00L 240.00,304.00 z M 63.952,144.00
	c-8.528,20.448-13.664,41.904-15.344,64.00l 63.728,0.00 c 0.88-22.32, 3.584-43.776, 7.856-64.00L 63.952,144.00 z M 144.336,208.00L 240.00,208.00 l0.00-64.00 L 152.976,144.00 
	C 148.176,164.48, 145.28,185.92, 144.336,208.00z M 240.00,112.00l0.00-93.664 c-7.296,2.128-14.528,5.664-21.616,10.688c-13.296,9.376-26.00,23.792-36.784,41.728
	c-7.44,12.40-13.856,26.208-19.232,41.248L 240.00,112.00z M 330.384,70.752c-10.784-17.936-23.488-32.352-36.784-41.744
	c-7.072-4.992-14.32-8.544-21.616-10.688L 271.984,112.00 l 77.632,0.00 C 344.256,96.976, 337.824,83.168, 330.384,70.752z M 272.00,144.00l0.00,64.00 l 95.664,0.00 
	c-0.944-22.08-3.824-43.52-8.624-64.00L 272.00,144.00 z M 399.68,240.00c-0.896,22.32-3.60,43.776-7.872,64.00l 56.256,0.00 c 8.528-20.448, 13.68-41.904, 15.344-64.00L 399.68,240.00 z
	 M 431.328,336.00l-47.952,0.00 c-9.312,29.376-22.192,55.152-37.664,75.712c 21.248-10.192, 40.512-23.808, 57.36-40.64C 413.824,360.336, 423.264,348.608, 431.328,336.00z
	 M 108.928,371.072c 16.848,16.832, 36.112,30.448, 57.36,40.64C 150.816,391.152, 137.952,365.376, 128.624,336.00L 80.672,336.00 C 88.736,348.608, 98.176,360.336, 108.928,371.072z
	 M 80.672,112.00l 47.952,0.00 c 9.328-29.376, 22.192-55.152, 37.664-75.712c-21.248,10.192-40.512,23.808-57.36,40.64C 98.176,87.664, 88.736,99.392, 80.672,112.00z
	 M 403.072,76.928c-16.848-16.832-36.112-30.448-57.36-40.64c 15.472,20.56, 28.336,46.336, 37.664,75.712l 47.952,0.00 
	C 423.264,99.392, 413.824,87.664, 403.072,76.928z" />
<glyph unicode="&#x6e;" d="M 120.384,17.168l 271.232,0.00 L 391.616,327.168 l-42.608,0.00 L 349.008,389.168 c0.00,17.04-13.952,31.008-31.008,31.008l-124.00,0.00 c-17.04,0.00-31.008-13.952-31.008-31.008l0.00-62.00 
		L 120.384,327.168 L 120.384,17.168 z M 194.00,389.104c 0.016,0.016, 0.032,0.048, 0.064,0.064l 123.888,0.00 c 0.016-0.016, 0.048-0.032, 0.064-0.064l-0.016-61.936l-124.00,0.00 
		L 194.00,389.104 zM 457.504,327.168 C 483.072,327.168 504.00,306.256 504.00,280.672 L 504.00,63.664 C 504.00,38.096 483.088,17.168 457.504,17.168 L 419.712,17.168 L 419.712,327.168 L 457.504,327.168 ZM 92.288,327.168 L 92.288,17.184 L 54.496,17.184 C 28.928,17.184 8.00,38.096 8.00,63.68 L 8.00,280.672 C 8.00,306.24 28.912,327.168 54.496,327.168 L 92.288,327.168 Z" />
<glyph unicode="&#x3c;" d="M 487.808,178.304C 490.88,193.696, 512.00,207.712, 512.00,224.00c0.00,16.304-21.12,30.288-24.192,45.68c-3.168,15.904, 10.88,36.816, 4.80,51.408
	c-6.224,14.848-31.168,19.808-40.08,32.992c-8.992,13.296-4.128,38.016-15.488,49.264c-11.392,11.328-36.336,6.464-49.744,15.344
	c-13.312,8.88-18.304,33.616-33.28,39.776c-2.672,1.104-5.60,1.552-8.624,1.552c-11.936,0.00-26.048-6.768-38.144-6.768
	c-1.744,0.00-3.44,0.144-5.088,0.448c-15.552,3.056-29.68,24.016-46.144,24.016c-16.464,0.00-30.608-20.96-46.144-24.016
	C 208.224,453.424, 206.528,453.28, 204.80,453.28c-12.128,0.00-26.256,6.768-38.16,6.768c-3.04,0.00-5.952-0.448-8.64-1.552
	c-14.992-6.16-19.968-30.896-33.28-39.712C 111.296,409.888, 86.384,414.752, 75.008,403.472C 63.616,392.192, 68.48,367.456, 59.488,354.16
	C 50.592,340.976, 25.664,336.00, 19.44,321.152C 13.344,306.56, 27.36,285.60, 24.192,269.696C 21.136,254.304,0.00,240.304,0.00,224.00c0.00-16.288, 21.12-30.304, 24.192-45.712
	c 3.168-15.888-10.88-36.80-4.784-51.408c 6.208-14.848, 31.168-19.792, 40.08-32.992c 8.992-13.344, 4.096-38.016, 15.456-49.248
	c 11.392-11.36, 36.336-6.48, 49.744-15.344c 13.312-8.896, 18.288-33.616, 33.28-39.776c 2.672-1.104, 5.584-1.568, 8.64-1.568
	c 11.936,0.00, 26.048,6.768, 38.16,6.768c 1.744,0.00, 3.424-0.144, 5.088-0.432c 15.536-3.056, 29.696-24.032, 46.16-24.032
	c 16.448,0.00, 30.576,20.976, 46.144,24.032c 1.664,0.304, 3.344,0.432, 5.056,0.432c 12.128,0.00, 26.24-6.768, 38.16-6.768
	c 3.024,0.00, 5.936,0.448, 8.624,1.568c 14.976,6.176, 19.968,30.896, 33.296,39.728c 13.424,8.864, 38.32,3.984, 49.696,15.28
	c 11.376,11.28, 6.528,36.016, 15.52,49.312c 8.928,13.184, 33.808,18.16, 40.064,32.992C 498.656,141.44, 484.64,162.40, 487.808,178.304z M 176.40,167.168
	l-25.28,0.00 l-47.808,76.944l-0.32,0.00 l0.00-76.944 L 79.328,167.168 l0.00,114.944 l 25.104,0.00 l 47.984-77.104l 0.32,0.00 l0.00,77.104 l 23.664,0.00 L 176.40,167.168 z M 285.856,167.168l-87.248,0.00 l0.00,114.944 l 85.968,0.00 
	l0.00-21.264 l-60.688,0.00 l0.00-24.624 l 55.712,0.00 l0.00-19.648 l-55.712,0.00 l0.00-28.176 l 61.984,0.00 L 285.872,167.168 z M 412.40,167.168l-25.12,0.00 l-19.472,78.224l-0.336,0.00 l-19.152-78.224l-25.60,0.00 
	l-30.432,114.944l 25.28,0.00 l 18.192-78.256l 0.336,0.00 l 19.968,78.256l 23.664,0.00 l 19.648-79.20l 0.336,0.00 l 18.832,79.20l 24.80,0.00 L 412.40,167.168z" />
<glyph unicode="&#x2f;" d="M 357.952,472.00L 165.616,472.00 c-27.84,0.00-50.608-22.768-50.608-50.608l0.00-394.784 c0.00-27.824, 22.768-50.608, 50.608-50.608l 192.336,0.00 
	c 27.824,0.00, 50.608,22.784, 50.608,50.608L 408.56,421.392 C 408.56,449.232, 385.776,472.00, 357.952,472.00z M 261.776-3.744c-19.568,0.00-35.44,11.328-35.44,25.296
	c0.00,13.984, 15.872,25.312, 35.44,25.312c 19.568,0.00, 35.424-11.328, 35.424-25.312C 297.20,7.584, 281.344-3.744, 261.776-3.744z M 368.064,72.176
	L 155.488,72.176 L 155.488,406.208 l 212.576,0.00 L 368.064,72.176 z" />
<glyph unicode="&#x4d;" d="M 503.008,13.504 C 485.12-4.784 409.776-22.976 323.184-29.44 C 322.48-29.504 321.76-29.536 321.056-29.60 C 311.072-30.32 300.976-30.944 290.768-31.312 C 290.352-31.344 289.936-31.344 289.52-31.376 C 279.104-31.744 268.64-32.00 258.144-32.00 C 258.00-32.00 257.84-32.00 257.696-32.00 C 257.552-32.00 257.408-32.00 257.264-32.00 C 246.768-32.00 236.304-31.744 225.888-31.408 C 225.68-31.408 225.472-31.376 225.264-31.376 C 225.056-31.376 224.848-31.376 224.64-31.344 C 224.624-31.344 224.608-31.344 224.608-31.344 C 214.416-30.944 204.336-30.352 194.368-29.632 C 193.648-29.568 192.928-29.536 192.224-29.472 C 105.60-22.992 30.272-4.816 12.384,13.472 C -9.872,36.224 5.328,75.76 23.504,93.136 C 39.744,108.608 82.16,118.224 124.608,128.48 C 125.648,128.736 126.672,128.976 127.712,129.232 C 128.992,129.552 130.272,129.856 131.552,130.176 C 136.128,131.296 140.688,132.432 145.216,133.584 C 145.408,133.616 145.584,133.68 145.776,133.712 C 158.304,136.928 187.136,146.432 190.48,162.432 C 190.144,199.712 180.048,212.128 170.112,223.296 C 165.392,228.64 160.672,233.712 157.088,241.056 C 145.936,263.808 126.768,320.016 145.936,411.76 C 154.96,454.832 196.192,470.72 225.856,476.576 C 243.648,480.096 257.264,480.00 257.264,480.00 C 257.264,480.00 257.584,480.00 257.696,480.00 C 257.824,480.00 258.144,480.00 258.144,480.00 C 258.144,480.00 355.008,480.672 369.472,411.776 C 388.656,320.032 369.472,263.824 358.32,241.088 C 347.232,218.32 325.424,217.536 324.928,162.448 C 328.288,146.448 357.104,136.944 369.616,133.728 C 374.368,132.528 379.20,131.344 384.032,130.16 C 385.184,129.872 386.352,129.60 387.504,129.312 C 388.96,128.976 390.416,128.592 391.872,128.256 C 433.984,118.112 475.792,108.512 491.904,93.168 C 510.08,75.792 525.28,36.256 503.008,13.504 Z" />
<glyph unicode="&#x6d;" d="M 511.60,324.496 L 512.00,324.496 L 512.00,312.00 C 512.00,294.368 495.904,271.936 476.224,262.096 L 464.00,256.00 L 448.00,248.00 L 448.00,392.00 L 437.04,392.00 L 74.976,392.00 L 64.00,392.00 L 64.00,248.00 L 48.00,256.00 L 35.776,262.096 C 16.096,271.936 0.00,294.368 0.00,312.00 L 0.00,324.496 L 0.40,324.496 C 1.44,340.56 14.912,359.552 32.00,369.84 L 32.00,424.00 L 138.992,424.00 L 220.224,464.624 C 230.064,469.536 243.024,472.00 256.00,472.00 C 268.976,472.00 281.936,469.52 291.776,464.624 L 373.008,424.00 L 480.00,424.00 L 480.00,369.84 C 497.088,359.568 510.56,340.56 511.60,324.496 ZM 306.096,160.192 L 490.528,252.384 C 498.304,256.256 505.536,261.264 512.00,267.008 L 512.00,16.00 C 512.00-6.00 494.00-24.00 472.00-24.00 L 40.00-24.00 C 18.00-24.00 0.00-6.00 0.00,16.00 L 0.00,267.008 C 6.464,261.248 13.696,256.256 21.472,252.368 L 205.904,160.192 C 219.792,153.248 237.584,149.408 256.00,149.408 C 274.416,149.408 292.208,153.248 306.096,160.192 ZM 112.048,340.848L 399.936,340.848L 399.936,318.88L 112.048,318.88zM 112.048,297.968L 399.936,297.968L 399.936,276.00L 112.048,276.00zM 112.048,255.088L 399.936,255.088L 399.936,233.12L 112.048,233.12z" />
<glyph unicode="&#x6f;" d="M 373.792,442.72 C 445.664,442.72 504.00,384.384 504.00,312.496 C 504.00,170.96 351.024,127.056 256.016-16.592 C 155.488,127.968 8.00,166.304 8.00,312.496 C 8.00,384.384 66.32,442.72 138.208,442.72 C 190.336,442.72 235.216,400.304 256.016,356.016 C 276.80,400.304 321.664,442.72 373.792,442.72 Z" />
<glyph unicode="&#x5b;" d="M 256.992,476.528c-81.104,0.00-146.88-65.76-146.88-146.88c0.00-2.00, 0.064-4.064, 0.16-6.176c 0.064-1.232, 0.144-2.432, 0.224-3.664
	c 0.048-0.768, 0.112-1.552, 0.176-2.336c 0.08-1.296, 0.192-2.592, 0.352-3.872C 123.216,194.96, 256.992-32.00, 256.992-32.00
	s 133.792,226.96, 145.968,345.60c 0.16,1.296, 0.256,2.592, 0.352,3.872c 0.064,0.80, 0.128,1.584, 0.176,2.336
	c 0.08,1.232, 0.16,2.432, 0.224,3.664c 0.096,2.112, 0.16,4.176, 0.16,6.176C 403.872,410.768, 338.112,476.528, 256.992,476.528z M 320.56,317.616
	c0.00-35.104-28.448-63.568-63.568-63.568c-35.104,0.00-63.568,28.464-63.568,63.568c0.00,35.104, 28.464,63.568, 63.568,63.568
	C 292.112,381.184, 320.56,352.72, 320.56,317.616z" />
<glyph unicode="&#x4c;" d="M 469.808,435.856l-1.952,1.952c-45.60,45.616-120.224,45.616-165.808,0.00L 196.384,332.16c-45.616-45.60-45.616-120.208,0.00-165.792l 1.936-1.952
	c 3.808-3.792, 7.84-7.216, 11.984-10.40l 38.672,38.688c-4.512,2.656-8.768,5.84-12.64,9.712l-1.968,1.936
	c-24.752,24.752-24.752,65.04,0.00,89.792l 105.664,105.664c 24.768,24.752, 65.024,24.752, 89.776,0.00l 1.952-1.952c 24.752-24.752, 24.752-65.056,0.00-89.792
	l-47.792-47.808c 8.304-20.496, 12.24-42.32, 11.872-64.128l 73.936,73.92C 515.392,315.664, 515.392,390.272, 469.808,435.856z M 313.664,283.632
	c-3.808,3.792-7.84,7.216-11.984,10.384l-38.672-38.656c 4.512-2.672, 8.768-5.84, 12.64-9.712l 1.968-1.968
	c 24.752-24.752, 24.752-65.024,0.00-89.792l-105.648-105.664c-24.752-24.768-65.04-24.768-89.792,0.00l-1.952,1.952c-24.752,24.752-24.752,65.024,0.00,89.776
	l 47.808,47.808c-8.304,20.48-12.24,42.32-11.888,64.112l-73.92-73.92c-45.60-45.616-45.60-120.24,0.00-165.824l 1.952-1.952
	c 45.60-45.616, 120.224-45.616, 165.824,0.00l 105.664,105.648c 45.60,45.616, 45.60,120.24,0.00,165.824L 313.664,283.632z" />
<glyph unicode="&#x69;" d="M 256.00,472.00C 119.024,472.00, 8.00,360.976, 8.00,224.00S 119.024-24.00, 256.00-24.00S 504.00,87.024, 504.00,224.00S 392.976,472.00, 256.00,472.00z M 256.00,410.00
	c 25.68,0.00, 46.496-20.816, 46.496-46.496S 281.68,316.992, 256.00,316.992s-46.496,20.816-46.496,46.496S 230.32,410.00, 256.00,410.00z M 318.00,68.992l-124.00,0.00 
	L 194.00,100.00 l 31.008,0.00 l0.00,155.008 l-31.008,0.00 l0.00,31.008 l 92.992,0.00 L 286.992,100.00 l 31.008,0.00 L 318.00,68.992 z" />
<glyph unicode="&#x49;" d="M 512.00,271.648l-92.288,154.848c0.00,0.00-48.192-36.928-64.592-35.376s-78.448,14.864-88.704,10.768c-5.312-2.128-16.096-13.856-26.40-26.32
		c-10.048,1.616-42.608,9.984-117.104,53.76c-4.144,2.432-9.44,1.28-12.224-2.64l-100.992-143.056c-1.712-2.416-2.144-5.536-1.184-8.336
		c 0.88-2.528, 20.608-58.352, 64.896-108.016l 12.336,13.936c-34.032,38.864-52.768,82.16-58.144,95.776l 93.296,132.144
		c 56.224-32.512, 88.672-44.944, 106.32-49.632c-4.336-5.648-7.92-10.512-10.016-13.52c-8.208-11.792-42.544-43.056-45.632-56.40
		c-1.344-5.808, 11.792-22.032, 36.40-21.536c 24.608,0.528, 48.208,13.84, 56.40,21.024s 31.792,25.12, 42.032,13.328s 47.168-43.664, 65.12-53.84
		c 12.416-7.04, 42.624-23.76, 62.032-34.464c 12.624-13.936, 23.248-30.32, 17.056-39.184c-1.60-2.24-4.592-5.20-12.576-5.20
		c-18.448,0.00-46.24,15.984-55.44,22.16c0.00,0.00,0.00,0.00,0.00,0.016c-0.016,0.00-0.016,0.00-0.016,0.00c-4.24,2.848-9.968,1.728-12.816-2.464
		s-1.744-9.952, 2.432-12.816c 19.056-12.96, 50.096-39.616, 52.256-55.968c 0.352-2.72-0.16-4.672-1.744-6.512
		c-3.504-4.096-8.784-6.064-16.176-6.064c-22.144,0.00-50.88,17.68-51.168,17.888c-4.288,2.656-9.856,1.392-12.592-2.816
		c-2.752-4.208-1.632-9.824, 2.528-12.64c 12.544-8.576, 33.12-27.008, 34.88-39.856c 0.368-2.88-0.272-5.136-2.128-7.328
		c-3.456-4.08-8.032-5.984-14.336-5.984c-16.368,0.00-35.504,12.912-35.696,13.024c-3.52,2.40-8.224,2.064-11.376-0.768
		c-3.136-2.864-3.968-7.504-1.952-11.248c 4.496-8.336, 8.768-22.688, 4.688-26.784c-0.128-0.112-1.024-0.544-3.20-0.544
		c-6.512,0.00-16.512,3.792-24.688,7.712l-13.008-14.144c 8.224-4.336, 24.624-12.032, 37.696-12.032c 6.816,0.00, 12.304,1.984, 16.24,5.952
		c 7.008,7.008, 7.84,16.704, 6.432,25.632c 7.536-2.912, 16.288-5.264, 24.88-5.264c 11.664,0.00, 21.488,4.336, 28.432,12.512
		c 5.216,6.16, 7.408,13.68, 6.32,21.728c-0.848,6.256-3.664,12.416-7.44,18.288c 5.184-1.12, 10.416-1.792, 15.52-1.792
		c 12.896,0.00, 23.04,4.208, 30.176,12.496c 4.992,5.808, 7.088,13.072, 6.048,20.96c-1.264,9.60-7.36,19.728-15.184,29.168
		c 3.552-0.624, 7.072-0.992, 10.464-0.992c 15.328,0.00, 23.52,7.12, 27.68,13.104c 10.336,14.752, 3.552,32.704-7.328,48.288L 512.00,271.648zM 117.008,128.192 L 108.08,118.096 C 99.168,108.032 83.76,107.104 73.696,116.032 C 63.632,124.944 62.704,140.32 71.616,150.40 L 86.464,167.168 L 92.40,173.872 L 92.40,173.872 L 128.384,214.48 C 137.296,224.56 152.688,225.504 162.736,216.576 C 172.816,207.664 173.744,192.272 164.832,182.208 L 117.84,129.136 L 117.008,128.192 L 117.008,128.192 ZM 293.60,92.224 C 303.664,83.296 304.592,67.888 295.712,57.856 L 262.944,22.224 C 254.032,12.176 238.624,11.232 228.56,20.16 C 218.496,29.056 217.568,44.448 226.48,54.512 L 235.824,64.688 L 239.84,69.024 L 239.84,69.024 L 259.232,90.128 C 268.144,100.192 283.52,101.136 293.60,92.224 ZM 166.496,93.616 L 166.496,93.616 L 149.60,74.544 C 140.688,64.464 125.296,63.552 115.232,72.464 C 105.168,81.376 104.24,96.752 113.152,106.832 L 126.128,121.472 L 126.128,121.472 L 138.416,135.36 L 138.416,135.36 L 169.92,170.912 C 178.832,180.992 194.24,181.936 204.288,173.008 C 214.352,164.096 215.296,148.688 206.368,138.624 L 168.032,95.344 L 166.496,93.616 ZM 226.656,71.648 L 217.20,61.216 L 217.20,61.216 L 206.00,48.88 C 197.088,38.816 181.696,37.872 171.632,46.80 C 161.552,55.696 160.624,71.104 169.536,81.184 L 175.472,87.712 L 175.472,87.712 L 188.064,101.584 L 188.064,101.584 L 217.184,133.696 C 226.096,143.76 241.488,144.704 251.552,135.776 C 261.632,126.88 262.56,111.472 253.648,101.392 L 226.656,71.648 Z" />
<glyph unicode="&#x3f;" d="M 256.00,472.00C 119.024,472.00, 8.00,360.976, 8.00,224.00S 119.024-24.00, 256.00-24.00S 504.00,87.024, 504.00,224.00S 392.976,472.00, 256.00,472.00z M 256.00,38.00
	c-25.68,0.00-46.496,20.816-46.496,46.496s 20.816,46.496, 46.496,46.496s 46.496-20.816, 46.496-46.496S 281.68,38.00, 256.00,38.00z M 364.56,300.496
	c-2.416-8.176-5.76-15.936-10.08-23.248c-4.304-7.328-9.488-14.272-15.504-20.80c-6.048-6.56-12.656-12.848-19.92-18.88
	c-8.096-6.704-14.608-12.672-19.504-17.84c-4.912-5.168-8.24-9.664-9.952-13.424c-3.248-6.96-5.68-23.632-2.608-44.304l-61.952,0.00 
	c-0.496,36.752, 4.896,54.736, 11.328,68.048c 6.56,13.456, 18.768,27.664, 36.688,42.656c 7.776,6.352, 13.792,12.016, 18.096,16.944
	c 4.304,4.912, 7.60,9.296, 9.808,13.168c 2.24,3.872, 3.632,7.504, 4.16,10.88c 0.512,3.344, 0.784,6.832, 0.784,10.448
	c0.00,6.736-1.184,12.928-3.504,18.608c-2.32,5.696-5.648,10.592-9.936,14.72c-4.32,4.144-9.392,7.36-15.248,9.696
	c-5.856,2.32-12.384,3.488-19.632,3.488c-28.272,0.00-45.504-19.712-51.696-59.20L 143.872,311.456 c 1.552,16.896, 5.376,32.176, 11.504,45.872
	c 6.112,13.712, 14.112,25.344, 24.032,34.912c 9.92,9.568, 21.472,16.944, 34.656,22.096c 13.184,5.184, 27.536,7.76, 43.04,7.76
	c 16.528,0.00, 31.60-2.368, 45.216-7.104c 13.632-4.752, 25.28-11.344, 35.008-19.776c 9.744-8.448, 17.312-18.528, 22.752-30.24
	c 5.424-11.712, 8.16-24.48, 8.16-38.256C 368.192,317.44, 366.976,308.688, 364.56,300.496z" />
<glyph unicode="&#x68;" d="M 442.00,363.488l-92.992,0.00 L 349.008,425.488 c0.00,17.04-13.952,31.008-31.008,31.008l-124.00,0.00 c-17.04,0.00-31.008-13.952-31.008-31.008l0.00-62.00 L 70.00,363.488 
	c-34.096,0.00-62.00-27.904-62.00-62.00l0.00-248.00 c0.00-34.112, 27.904-62.00, 62.00-62.00l 372.00,0.00 c 34.112,0.00, 62.00,27.888, 62.00,62.00l0.00,248.00 
	C 504.00,335.60, 476.112,363.488, 442.00,363.488z M 194.00,425.488l 124.00,0.00 l0.00-62.00 l-124.00,0.00 L 194.00,425.488 z M 380.00,146.48l-92.992,0.00 l0.00-92.992 l-62.00,0.00 l0.00,92.992 L 132.00,146.48 
	l0.00,62.00 l 92.992,0.00 l0.00,92.992 l 62.00,0.00 l0.00-92.992 l 92.992,0.00 L 379.984,146.48 z" />
<glyph unicode="&#x47;" d="M 397.968,3.216 C 384.128-10.944 325.808-24.992 258.784-30.032 C 258.224-30.064 257.68-30.096 257.136-30.128 C 249.408-30.688 241.60-31.152 233.712-31.472 C 233.392-31.472 233.072-31.504 232.752-31.504 C 224.688-31.776 216.592-32.00 208.464-32.00 C 208.368-32.00 208.24-32.00 208.128-32.00 C 208.016-32.00 207.904-32.00 207.792-32.00 C 199.664-32.00 191.568-31.776 183.472-31.504 C 183.312-31.504 183.152-31.504 182.992-31.472 C 182.848-31.472 182.672-31.472 182.512-31.472 C 182.512-31.472 182.496-31.472 182.496-31.472 C 174.624-31.152 166.816-30.688 159.104-30.128 C 158.544-30.096 158.00-30.064 157.44-30.032 C 90.40-25.008 32.096-10.944 18.256,3.216 C 1.04,20.816 12.80,51.408 26.864,64.88 C 39.44,76.848 72.272,84.32 105.12,92.256 C 105.92,92.448 106.72,92.624 107.52,92.816 C 108.512,93.072 109.504,93.312 110.496,93.536 C 114.048,94.416 117.584,95.28 121.088,96.192 C 121.232,96.224 121.376,96.256 121.52,96.288 C 131.20,98.768 153.52,106.144 156.112,118.512 C 155.856,147.344 148.048,156.944 140.352,165.60 C 136.688,169.712 133.04,173.664 130.272,179.344 C 121.632,196.944 106.80,240.432 121.632,311.44 C 128.624,344.784 160.528,357.072 183.488,361.616 C 197.248,364.336 207.792,364.272 207.792,364.272 C 207.792,364.272 208.048,364.272 208.128,364.272 C 208.224,364.272 208.464,364.272 208.464,364.272 C 208.464,364.272 283.424,364.784 294.592,311.456 C 309.44,240.448 294.592,196.96 285.968,179.36 C 277.376,161.728 260.496,161.136 260.112,118.512 C 262.72,106.128 285.04,98.752 294.704,96.288 C 298.384,95.344 302.128,94.448 305.856,93.504 C 306.768,93.28 307.648,93.072 308.544,92.848 C 309.68,92.592 310.816,92.32 311.936,92.032 C 344.528,84.192 376.896,76.752 389.36,64.88 C 403.44,51.408 415.184,20.816 397.968,3.216 ZM 397.904,480.00c-63.008,0.00-114.096-38.576-114.096-86.128c0.00-37.168, 31.184-68.848, 74.864-80.912c 0.64-3.616, 1.456-8.752, 1.456-11.936
	c0.00-14.992-5.728-29.20-15.952-42.016c 15.808,6.656, 38.096,28.032, 51.904,48.768c 0.608,0.00, 1.216-0.032, 1.824-0.032
	c 63.024,0.00, 114.096,38.576, 114.096,86.144C 512.00,441.424, 460.928,480.00, 397.904,480.00z" />
<glyph unicode="&#x67;" d="M 288.032,88.032 C 279.184,88.032 272.032,95.184 272.032,104.032 L 272.032,232.016 C 272.032,240.848 279.184,248.016 288.032,248.016 L 352.032,248.016 C 360.88,248.016 368.032,240.848 368.032,232.016 L 368.032,104.032 C 368.032,95.184 360.88,88.032 352.032,88.032 L 288.032,88.032 ZM 416.064,88.032 C 407.216,88.032 400.064,95.184 400.064,104.032 L 400.064,424.032 C 400.064,432.864 407.216,440.032 416.064,440.032 L 480.064,440.032 C 488.912,440.032 496.064,432.864 496.064,424.032 L 496.064,104.032 C 496.064,95.184 488.912,88.032 480.064,88.032 L 416.064,88.032 ZM 160.00,88.032 C 151.168,88.032 144.00,95.184 144.00,104.032 L 144.00,328.032 C 144.00,336.864 151.168,344.032 160.00,344.032 L 224.00,344.032 C 232.832,344.032 240.00,336.864 240.00,328.032 L 240.00,104.032 C 240.00,95.184 232.832,88.032 224.00,88.032 L 160.00,88.032 ZM 31.984,88.032 C 23.152,88.032 15.984,95.184 15.984,104.032 L 15.984,200.032 C 15.984,208.864 23.152,216.032 31.984,216.032 L 95.984,216.032 C 104.816,216.032 111.984,208.864 111.984,200.032 L 111.984,104.032 C 111.984,95.184 104.816,88.032 95.984,88.032 L 31.984,88.032 ZM0.00,72.032L 512.00,72.032L 512.00,8.032L0.00,8.032z" />
<glyph unicode="&#x46;" d="M 447.488,94.768 C 457.376,94.768 466.816,90.56 473.408,83.232 C 479.664,76.336 482.848,67.376 482.384,58.064 C 481.904,48.736 477.824,40.16 470.88,33.904 C 423.792-8.592 362.896-32.00 299.392-32.00 C 272.384-32.00 246.384-27.68 221.984-19.904 L 221.984-20.048 C 221.312-19.84 220.672-19.568 220.00-19.344 C 217.072-18.384 214.224-17.264 211.36-16.208 C 207.888-14.944 204.416-13.712 201.04-12.304 C 198.336-11.152 195.728-9.888 193.072-8.656 C 189.616-7.088 186.16-5.52 182.80-3.808 C 180.368-2.56 178.032-1.168 175.648,0.16 C 172.176,2.08 168.72,3.968 165.36,6.032 C 163.216,7.344 161.168,8.80 159.072,10.192 C 155.60,12.464 152.128,14.736 148.784,17.168 C 146.96,18.512 145.216,19.984 143.424,21.36 C 139.952,24.032 136.496,26.688 133.168,29.536 C 131.648,30.848 130.224,32.256 128.736,33.584 C 125.28,36.688 121.856,39.792 118.576,43.056 C 117.376,44.256 116.24,45.552 115.056,46.80 C 111.648,50.336 108.256,53.904 105.056,57.648 C 104.128,58.704 103.296,59.872 102.384,60.944 C 99.056,64.976 95.776,69.024 92.688,73.232 C 92.016,74.176 91.424,75.12 90.768,76.064 C 87.568,80.528 84.464,85.056 81.552,89.76 C 81.104,90.496 80.704,91.28 80.256,92.016 C 77.264,96.96 74.384,101.984 71.728,107.12 C 71.44,107.696 71.20,108.304 70.896,108.864 C 68.176,114.24 65.584,119.68 63.248,125.28 C 63.072,125.696 62.928,126.16 62.752,126.576 C 61.456,129.712 60.368,132.944 59.184,136.112 L 28.992,136.112 C 10.096,136.112 -5.232,151.424 -5.232,170.336 C -5.232,189.248 10.096,204.56 28.992,204.56 L 44.16,204.56 C 43.808,209.12 43.696,213.744 43.60,218.368 L 43.616,214.08 C 43.488,217.376 43.36,220.672 43.36,224.00 C 43.36,226.544 43.472,229.056 43.552,231.568 L 43.552,228.88 C 43.648,233.744 43.76,238.624 44.128,243.456 L 28.992,243.456 C 10.096,243.456 -5.232,258.784 -5.232,277.68 C -5.232,296.576 10.096,311.904 28.992,311.904 L 59.168,311.904 C 60.208,314.752 61.12,317.632 62.256,320.432 C 62.272,320.464 62.288,320.512 62.304,320.544 C 73.408,347.824 89.20,373.216 109.312,395.488 C 110.096,396.368 111.024,397.056 111.888,397.84 C 158.672,448.288 225.344,480.00 299.392,480.00 C 362.896,480.00 423.792,456.592 470.896,414.096 C 477.824,407.84 481.92,399.264 482.384,389.952 C 482.848,380.64 479.664,371.696 473.408,364.768 C 466.80,357.44 457.344,353.248 447.488,353.248 C 438.80,353.248 430.496,356.448 424.064,362.256 C 389.84,393.152 345.568,410.16 299.392,410.16 C 228.576,410.16 167.04,370.288 135.60,311.92 L 407.04,311.92 C 425.952,311.92 441.264,296.592 441.264,277.696 C 441.264,258.80 425.952,243.472 407.04,243.472 L 114.288,243.472 C 113.632,237.312 113.28,231.104 113.264,224.848 C 113.312,227.104 113.504,229.328 113.60,231.584 L 113.728,214.096 C 113.60,216.688 113.408,219.248 113.312,221.84 C 113.376,216.016 113.696,210.24 114.304,204.56 L 407.04,204.56 C 425.952,204.56 441.264,189.248 441.264,170.336 C 441.264,151.424 425.952,136.112 407.04,136.112 L 135.856,136.112 C 146.736,115.968 160.976,97.888 178.176,83.024 C 191.312,71.744 206.016,62.24 221.936,54.928 L 221.936,54.832 C 245.52,43.936 271.744,37.856 299.392,37.856 C 345.568,37.856 389.84,54.864 424.08,85.776 C 430.512,91.584 438.816,94.768 447.488,94.768 Z" />
<glyph unicode="&#x5d;" d="M 224.576,447.20 C 230.016,447.20 234.496,442.736 234.496,437.28 L 234.496,10.752 C 234.496,5.28 230.016,0.832 224.576,0.832 L 202.24,0.832 C 196.784,0.832 192.32,5.28 192.32,10.752 L 192.32,228.992 L 104.64,228.992 C 100.544,228.992 95.456,229.92 90.576,231.424 C 85.68,232.944 80.976,235.008 77.648,237.296 L 18.752,277.712 C 15.424,280.00 13.76,283.008 13.76,286.016 C 13.76,289.024 15.424,292.048 18.752,294.32 L 77.648,334.752 C 80.976,337.024 85.68,339.104 90.576,340.608 C 95.456,342.096 100.544,343.04 104.64,343.04 L 192.32,343.04 L 192.32,437.28 C 192.32,442.736 196.784,447.20 202.24,447.20 L 224.576,447.20 Z M 504.784,343.904 C 508.112,341.616 509.776,338.624 509.776,335.60 C 509.776,332.592 508.112,329.584 504.784,327.296 L 445.888,286.864 C 442.544,284.576 437.856,282.496 432.96,280.992 C 428.048,279.504 422.992,278.56 418.896,278.56 L 269.232,278.56 L 249.376,392.64 L 418.896,392.64 C 422.992,392.64 428.048,391.712 432.96,390.208 C 437.856,388.688 442.544,386.624 445.888,384.336 L 504.784,343.904 Z" />
<glyph unicode="&#x66;" d="M 496.704,86.176 C 509.216,74.24 519.68,47.024 504.40,31.36 C 489.072,15.712 447.52,0.064 370.928,0.064 C 330.032,0.064 299.232,4.544 276.96,11.088 C 280.688,13.68 283.984,16.432 286.848,19.36 C 295.248,27.952 299.584,39.296 299.36,52.144 C 299.072,68.688 290.992,86.928 278.752,98.592 C 276.96,100.304 275.392,101.888 273.904,103.408 C 272.88,104.448 271.856,105.456 270.848,106.448 C 276.528,108.992 283.904,111.472 294.24,114.112 C 302.848,116.288 322.672,122.816 324.976,133.824 C 324.656,171.696 309.664,172.272 302.016,187.936 C 294.352,203.552 281.152,242.24 294.352,305.328 C 304.064,351.856 368.512,352.288 370.864,352.288 C 370.912,352.288 370.928,352.288 370.928,352.288 C 370.928,352.288 370.96,352.288 371.008,352.288 C 373.36,352.288 437.808,351.856 447.52,305.328 C 460.72,242.24 447.52,203.568 439.856,187.936 C 432.176,172.272 417.184,171.696 416.864,133.824 C 419.184,122.832 439.008,116.304 447.632,114.112 C 481.152,105.568 483.648,98.656 496.704,86.176 ZM 217.792,114.112 C 251.328,105.568 253.824,98.656 266.896,86.192 C 279.424,74.256 289.872,47.04 274.56,31.376 C 259.232,15.728 217.696,0.08 141.088,0.08 C 64.512,0.08 22.96,15.712 7.648,31.376 C -7.68,47.056 2.80,74.256 15.296,86.192 C 28.352,98.672 30.864,105.584 64.40,114.128 C 73.024,116.304 92.832,122.832 95.136,133.84 C 94.816,171.712 79.824,172.288 72.176,187.952 C 64.512,203.568 51.312,242.256 64.512,305.344 C 74.224,351.872 138.672,352.304 141.024,352.304 C 141.072,352.304 141.088,352.304 141.088,352.304 C 141.088,352.304 141.12,352.304 141.152,352.304 C 143.52,352.304 207.952,351.856 217.68,305.328 C 230.88,242.24 217.68,203.568 210.016,187.936 C 202.336,172.272 187.344,171.696 187.024,133.824 C 189.344,122.832 209.168,116.304 217.792,114.112 Z" />
<glyph unicode="&#x79;" d="M 256.00,480.00C 114.832,480.00,0.00,365.136,0.00,224.00c0.00-141.152, 114.832-256.00, 256.00-256.00c 141.168,0.00, 256.00,114.848, 256.00,256.00C 512.00,365.136, 397.152,480.00, 256.00,480.00z
	 M 474.336,224.00c0.00-49.936-16.944-96.00-45.216-132.832c-8.00,6.304-16.512,23.152-8.512,40.64c 8.064,17.616, 10.192,58.336, 8.336,74.192
	c-1.76,15.856-10.00,54.032-32.384,54.40c-22.336,0.336-37.664,7.728-50.96,34.224c-27.552,55.136, 51.728,65.712, 24.192,96.272
	c-7.728,8.56-47.552-35.296-53.392,23.168C 316.00,418.192, 320.00,424.448, 325.328,430.944C 411.824,401.888, 474.336,320.128, 474.336,224.00z M 226.00,440.16
	c-5.216-10.16-19.008-14.304-27.376-21.952C 180.384,401.712, 172.56,404.00, 162.72,388.16C 152.832,372.336, 120.944,349.504, 120.944,338.048
	c0.00-11.424, 16.128-24.976, 24.176-22.336c 8.048,2.656, 29.28,2.496, 41.776-1.888c 12.496-4.416, 104.384-8.832, 75.104-86.496
	c-9.28-24.688-49.936-20.512-60.768-61.44c-1.616-5.984-7.232-31.632-7.616-40.016c-0.672-12.944, 9.152-61.792-3.328-61.792
	c-12.56,0.00-46.336,43.68-46.336,51.616c0.00,7.904-8.768,35.696-8.768,59.472c0.00,23.776-40.448,23.408-40.448,55.008
	c0.00,28.528, 21.952,42.704, 16.992,56.368c-4.832,13.584-43.376,14.08-59.44,15.728C 80.336,375.072, 146.384,429.168, 226.00,440.16z M 187.328,16.80
	c 13.104,6.928, 14.432,15.856, 26.336,16.336c 13.616,0.624, 24.672,5.344, 40.00,8.688c 13.616,2.976, 37.952,16.784, 59.376,18.56
	c 18.048,1.472, 53.712-0.96, 63.344-18.384c-34.56-22.944-75.952-36.336-120.40-36.336C 232.00,5.664, 208.944,9.616, 187.328,16.80z" />
<glyph unicode="&#x78;" d="M 286.304,381.392L 31.184,381.392 C 13.952,381.392,0.00,367.44,0.00,350.224l0.00-351.04 C0.00-18.048, 13.952-32.00, 31.184-32.00l 351.072,0.00 c 17.216,0.00, 31.168,13.952, 31.168,31.168
	L 413.424,255.744 l-62.336-62.352l0.00-163.04 L 62.352,30.352 L 62.352,319.04 l 161.584,0.00 L 286.304,381.392zM 512.00,323.488 C 511.984,319.472 509.696,318.56 506.864,321.376 L 470.96,357.296 L 461.296,366.96 L 224.032,129.712 C 220.336,126.016 214.352,126.016 210.656,129.712 L 161.328,179.04 C 157.632,182.736 157.632,188.72 161.328,192.416 L 398.56,429.664 L 388.896,439.328 L 352.992,475.232 C 350.16,478.048 351.136,480.368 355.104,480.368 L 504.768,480.368 C 508.752,480.384 512.016,477.12 512.00,473.12 L 512.00,323.488 Z" />
<glyph unicode="&#x45;" d="M 306.096,216.192 L 490.528,308.384 C 498.304,312.256 505.536,317.264 512.00,323.008 L 512.00,72.00 C 512.00,50.00 494.00,32.00 472.00,32.00 L 40.00,32.00 C 18.00,32.00 0.00,50.00 0.00,72.00 L 0.00,323.008 C 6.464,317.248 13.696,312.256 21.472,308.368 L 205.904,216.192 C 219.792,209.248 237.584,205.408 256.00,205.408 C 274.416,205.408 292.208,209.248 306.096,216.192 ZM 35.776,334.096 C 16.096,343.936 0.00,366.368 0.00,384.00 C 0.00,401.60 18.00,416.00 40.00,416.00 L 472.00,416.00 C 494.00,416.00 512.00,401.60 512.00,384.00 C 512.00,366.368 495.904,343.936 476.208,334.096 L 291.776,241.872 C 281.936,236.96 268.976,234.496 256.00,234.496 C 243.024,234.496 230.064,236.96 220.224,241.872 L 35.776,334.096 Z" />
<glyph unicode="&#x65;" d="M 455.744,480.00 C 476.08,480.00 492.512,463.552 492.512,443.216 C 492.512,422.912 476.08,406.464 455.744,406.464 C 443.12,406.464 432.00,412.832 425.328,422.528 C 421.216,420.144 412.672,415.568 400.992,409.04 C 401.712,406.64 402.08,404.064 402.08,401.392 C 402.08,386.272 389.792,374.016 374.704,374.016 C 366.928,374.016 359.92,377.28 354.928,382.496 C 348.512,378.656 341.84,374.608 334.928,370.304 C 335.312,368.656 335.60,366.928 335.60,365.12 C 335.60,353.248 325.968,343.632 314.064,343.632 C 309.008,343.632 304.368,345.376 300.672,348.304 C 293.776,343.712 286.80,338.992 279.808,334.08 C 279.984,333.12 280.144,332.08 280.144,330.976 C 280.144,322.32 273.072,315.312 264.40,315.312 C 261.552,315.312 258.88,316.08 256.56,317.424 C 230.176,297.872 204.288,276.56 181.84,254.24 C 208.704,189.04 218.864,134.32 216.80,119.408 C 214.736,104.592 203.296,86.112 184.704,91.616 C 178.864,93.28 180.384,98.464 184.112,100.224 C 186.448,101.312 192.208,105.04 193.36,113.984 C 195.488,130.416 185.856,179.696 165.888,237.504 C 165.808,237.392 165.712,237.28 165.616,237.20 C 155.584,226.224 146.528,215.728 138.288,205.68 L 152.72,205.68 C 156.752,205.68 160.048,202.40 160.048,198.352 C 160.048,194.32 156.768,191.008 152.72,191.008 L 126.656,191.008 C 119.584,181.808 113.264,172.992 107.632,164.608 L 152.704,164.608 C 156.736,164.608 160.032,161.296 160.032,157.232 C 160.032,153.184 156.752,149.936 152.704,149.936 L 98.288,149.936 C 92.336,140.064 87.36,130.848 83.296,122.144 L 152.72,122.144 C 156.752,122.144 160.048,118.848 160.048,114.784 C 160.048,110.752 156.768,107.424 152.72,107.424 L 77.04,107.424 C 46.976,28.912 94.288,3.328 95.456,2.656 C 102.112-1.264 95.072-14.00 79.60-7.344 C -26.592,38.336 70.32,183.744 158.176,258.816 C 135.024,320.24 101.024,387.648 57.744,434.208 C 57.664,434.304 57.568,434.384 57.472,434.496 C 50.624,441.824 55.584,444.384 61.52,438.544 C 61.584,438.48 61.616,438.448 61.664,438.384 C 112.672,388.736 149.296,327.744 174.128,272.192 C 195.44,290.368 221.744,309.088 249.248,326.96 C 248.88,328.272 248.688,329.568 248.688,330.96 C 248.688,339.664 255.728,346.688 264.40,346.688 C 268.256,346.688 271.792,345.296 274.544,342.992 C 281.328,347.20 288.144,351.312 294.896,355.344 C 293.44,358.288 292.56,361.584 292.56,365.088 C 292.56,376.992 302.208,386.624 314.064,386.624 C 321.60,386.624 328.208,382.768 332.048,376.896 C 338.592,380.608 344.976,384.16 351.104,387.536 C 348.704,391.60 347.312,396.336 347.312,401.376 C 347.312,416.496 359.568,428.736 374.704,428.736 C 385.504,428.736 394.864,422.448 399.296,413.344 C 411.216,419.584 419.76,423.84 423.424,425.648 C 420.592,430.912 418.96,436.864 418.96,443.216 C 418.96,463.552 435.44,480.00 455.744,480.00 Z" />
<glyph unicode="&#x75;" d="M 415.232,325.472L 96.752,325.472 C 43.392,325.472,0.00,282.064,0.00,228.72l0.00-9.424 c0.00-53.36, 43.392-96.768, 96.752-96.768l 318.48,0.00 
	c 53.36,0.00, 96.768,43.408, 96.768,96.768l0.00,9.424 C 512.00,282.064, 468.592,325.472, 415.232,325.472z M 479.744,219.296c0.00-35.584-28.944-64.512-64.512-64.512L 256.00,154.784 
	l0.00,138.432 l 159.232,0.00 c 35.584,0.00, 64.512-28.944, 64.512-64.496L 479.744,219.296 z" />
<glyph unicode="&#x3b;" d="M 221.904,290.112l 191.984,0.00 l0.00-32.00 L 221.904,258.112 L 221.904,290.112 z M 221.904,226.112l 191.984,0.00 l0.00-31.984 L 221.904,194.128 L 221.904,226.112 z M 221.904,162.128l 191.984,0.00 l0.00-32.00 L 221.904,130.128 L 221.904,162.128 
	z M 221.904,98.128l 127.984,0.00 l0.00-32.00 l-127.984,0.00 L 221.904,98.128 z M 477.872,386.112l-96.00,0.00 l0.00,64.00 c0.00,17.60-14.40,32.00-32.00,32.00l-320.00,0.00 c-17.60,0.00-32.00-14.40-32.00-32.00l0.00-352.00 c0.00-17.60, 14.40-32.00, 32.00-32.00l 96.00,0.00 l0.00-64.00 
	c0.00-17.616, 14.416-32.00, 32.00-32.00l 319.984,0.00 c 17.616,0.00, 32.00,14.384, 32.00,32.00l0.00,352.00 C 509.872,371.712, 495.488,386.112, 477.872,386.112z M 125.888,354.112l0.00-240.00 l-80.00,0.00 l0.00,320.00 l 288.00,0.00 l0.00-48.00 L 157.888,386.112 
	C 140.304,386.112, 125.888,371.712, 125.888,354.112z M 461.888,18.112l-288.00,0.00 l0.00,320.00 l 288.00,0.00 L 461.888,18.112 z" />
<glyph unicode="&#x5c;" d="M 504.064,181.856c0.00,33.232-27.328,61.904-66.768,75.232c-3.984-60.48-53.136-112.48-123.952-139.20c 13.152-7.808, 28.736-13.60, 45.824-16.656
	c 12.352-28.88, 31.888-56.56, 55.824-74.752c-12.96,25.44-13.712,50.864-9.152,73.248C 461.504,105.968, 504.064,140.352, 504.064,181.856z
	 M 404.304,264.992c0.00,73.456-89.344,133.008-199.52,133.008s-199.52-59.552-199.52-133.008c0.00-54.704, 49.52-101.664, 120.32-122.112
	c 11.072-27.392, 17.328-63.552-1.104-99.712c 28.00,21.232, 49.968,55.52, 61.472,89.424c 6.192-0.40, 12.48-0.608, 18.832-0.608
	C 314.96,131.968, 404.304,191.536, 404.304,264.992z" />
<glyph unicode="&#x64;" d="M 85.504,131.008c 21.872,0.00, 41.616-9.072, 55.696-23.648l 208.768,104.384c-0.624,3.984-0.976,8.08-0.976,12.256s 0.336,8.288, 0.976,12.256
	L 141.20,340.64c-14.096-14.56-33.824-23.648-55.696-23.648c-42.80,0.00-77.504,34.704-77.504,77.504S 42.704,472.00, 85.504,472.00s 77.504-34.704, 77.504-77.504
	c0.00-4.176-0.336-8.288-0.976-12.256l 208.768-104.384c 14.096,14.56, 33.824,23.648, 55.696,23.648c 42.784,0.00, 77.504-34.704, 77.504-77.504
	c0.00-42.80-34.72-77.504-77.504-77.504c-21.872,0.00-41.616,9.072-55.696,23.648l-208.768-104.352c 0.624-4.00, 0.976-8.112, 0.976-12.288
	c0.00-42.80-34.704-77.504-77.504-77.504S 8.00,10.704, 8.00,53.504S 42.704,131.008, 85.504,131.008z" />
<glyph unicode="&#x44;" d="M 31.552,419.136A224.00,60.848 180.00 1,0 479.552,419.136A224.00,60.848 180.00 1,0 31.552,419.136zM 255.552,288.00 C 359.872,288.00 447.28,303.312 472.208,324.00 C 476.816,317.60 479.552,310.912 479.552,304.00 C 479.552,259.84 379.264,224.00 255.552,224.00 C 131.84,224.00 31.552,259.84 31.552,304.00 C 31.552,310.912 34.272,317.60 38.896,324.00 C 63.808,303.312 151.216,288.00 255.552,288.00 ZM 255.552,32.00 C 359.872,32.00 447.28,47.312 472.208,68.00 C 476.816,61.60 479.552,54.912 479.552,48.00 C 479.552,6.944 392.864-26.912 281.264-31.472 C 281.088-31.472 280.928-31.488 280.752-31.488 C 272.48-31.808 264.08-32.00 255.552-32.00 C 247.024-32.00 238.624-31.808 230.352-31.488 C 230.16-31.488 230.00-31.472 229.824-31.472 C 118.224-26.912 31.552,6.96 31.552,48.00 C 31.552,54.912 34.272,61.60 38.896,68.00 C 63.808,47.312 151.216,32.00 255.552,32.00 ZM 255.552,92.00 C 131.84,92.00 31.552,127.84 31.552,172.00 C 31.552,178.912 34.272,185.60 38.896,192.00 C 63.808,171.312 151.232,156.00 255.552,156.00 C 359.872,156.00 447.28,171.312 472.208,192.00 C 476.816,185.60 479.552,178.912 479.552,172.00 C 479.552,127.84 379.264,92.00 255.552,92.00 Z" />
<glyph unicode="&#x43;" d="M 450.864,355.60c-61.36,34.896-149.12,38.40-194.80,38.40C 256.032,393.968, 256.016,393.936, 256.00,393.92c-0.032,0.016-0.048,0.032-0.08,0.064
	c-45.68,0.00-133.408-3.504-194.80-38.40C 9.552,326.24, 8.00,294.832, 8.00,272.912l0.00-3.296 c0.00-5.008, 4.32-9.12, 9.616-9.12l 116.384,0.00 
	c 5.296,0.00, 9.616,4.112, 9.616,9.12l0.00,11.104 c0.00,27.712, 26.496,32.144, 41.12,34.48s 50.976,4.64, 71.184,4.64c 0.032,0.00, 0.048,0.00, 0.08,0.00
	c 0.016,0.00, 0.048,0.00, 0.064,0.00c 20.224,0.00, 56.544-2.272, 71.20-4.64c 14.608-2.352, 41.104-6.80, 41.104-34.48l0.00-11.104 c0.00-5.008, 4.336-9.12, 9.632-9.12
	l 116.368,0.00 c 5.28,0.00, 9.632,4.112, 9.632,9.12l0.00,3.296 C 504.00,294.832, 502.448,326.24, 450.864,355.60z M 256.00,264.00c-27.472,0.00-84.704,3.952-113.776-31.312
	c-29.072-35.232-101.808-210.688-36.96-210.688c 64.864,0.00, 121.536,0.00, 150.736,0.00c 29.184,0.00, 85.872,0.00, 150.736,0.00s-7.872,175.456-36.96,210.688
	C 340.704,267.936, 283.488,264.00, 256.00,264.00z M 256.00,68.496c-42.80,0.00-77.504,34.72-77.504,77.504c0.00,42.80, 34.704,77.504, 77.504,77.504
	c 42.816,0.00, 77.504-34.704, 77.504-77.504C 333.504,103.216, 298.816,68.496, 256.00,68.496z" />
<glyph unicode="&#x63;" d="M 125.696-32.00l0.00,49.60 l 257.84,0.00 L 383.536-32.00 l 59.504,0.00 L 443.04,434.112 c0.00,10.96-8.896,19.808-19.84,19.808l-19.824,0.00 
	c-10.944,0.00-19.824-8.848-19.824-19.808l0.00-119.024 L 125.696,315.088 L 125.696,434.112 c0.00,10.96-8.88,19.808-19.824,19.808l-19.84,0.00 c-10.96,0.00-19.84-8.848-19.84-19.808L 66.192-32.00 
	L 125.696-32.00 z M 125.696,255.60l 257.84,0.00 l0.00-59.504 L 125.696,196.096 L 125.696,255.60 z M 125.696,136.576l 257.84,0.00 l0.00-59.504 L 125.696,77.072 L 125.696,136.576 z" />
<glyph unicode="&#x72;" d="M 448.896,416.896l-24.816,0.00 l0.00-55.104 l-88.176,0.00 L 335.904,416.896 l-159.824,0.00 l0.00-55.104 L 87.904,361.792 L 87.904,416.896 l-24.80,0.00 C 32.80,416.896, 8.00,392.08, 8.00,361.776
	l0.00-330.672 c0.00-30.32, 24.80-55.104, 55.104-55.104l 385.776,0.00 c 30.32,0.00, 55.104,24.80, 55.104,55.104L 503.984,361.776 C 504.00,392.08, 479.20,416.896, 448.896,416.896z
	 M 448.896,31.104L 63.104,31.104 L 63.104,251.568 l 385.776,0.00 L 448.88,31.104 z M 151.28,472.00L 112.704,472.00 l0.00-93.68 l 38.576,0.00 L 151.28,472.00 z M 399.28,472.00l-38.576,0.00 l0.00-93.68 l 38.576,0.00 L 399.28,472.00 z" />
<glyph unicode="&#x42;" d="M 413.296,325.472l-102.624,0.00 c-7.824,13.088-20.00,26.592-36.864,40.80c-0.448,0.384-0.72,0.96-0.72,1.552
	c0.00,0.592, 0.272,1.168, 0.736,1.536c 32.816,27.168, 47.856,57.792, 47.68,97.92c-0.928-2.96-2.112-6.304-3.616-9.952
	c-0.384-0.96-1.408-1.424-2.40-1.184c-0.592,0.16-1.104,0.304-1.584,0.304l-42.432,0.00 c-2.784,0.00-5.04-1.92-5.04-4.288
	c0.00-2.352, 2.256-4.288, 5.04-4.288l 38.72,0.00 c 0.704,0.00, 1.36-0.368, 1.728-0.992c 0.352-0.608, 0.368-1.36, 0.048-1.984
	c-1.84-3.44-3.632-6.528-5.472-9.456C 306.08,434.752, 305.28,434.384, 304.432,434.56c-0.032,0.00-0.496,0.112-0.512,0.112
	c-0.256,0.064-0.464,0.112-0.608,0.112l-31.824,0.00 c-2.784,0.00-5.04-1.936-5.04-4.288c0.00-2.368, 2.256-4.288, 5.04-4.288l 24.64,0.00 
	c 0.768,0.00, 1.472-0.432, 1.808-1.12c 0.336-0.688, 0.256-1.504-0.224-2.112c-2.96-3.856-6.16-7.68-9.536-11.36
	c-0.368-0.416-0.928-0.656-1.488-0.656l-15.20,0.00 c-2.784,0.00-5.04-1.92-5.04-4.288c0.00-2.352, 2.272-4.288, 5.04-4.288l 2.512,0.00 
	c 0.848,0.00, 1.60-0.512, 1.888-1.296c 0.304-0.768, 0.08-1.664-0.528-2.208c-6.272-5.68-12.496-10.736-19.04-15.44l-1.104-0.832
	c-0.704-0.512-1.664-0.496-2.368,0.016l-1.072,0.816c-6.528,4.672-12.736,9.728-19.04,15.44c-0.624,0.56-0.832,1.44-0.528,2.208
	c 0.304,0.784, 1.04,1.296, 1.888,1.296l 2.512,0.00 c 2.784,0.00, 5.04,1.92, 5.04,4.288c0.00,2.368-2.256,4.288-5.04,4.288l-15.20,0.00 
	c-0.576,0.00-1.104,0.24-1.488,0.656c-3.328,3.664-6.544,7.472-9.536,11.36c-0.464,0.608-0.544,1.424-0.208,2.112
	c 0.336,0.688, 1.04,1.12, 1.808,1.12l 24.64,0.00 c 2.768,0.00, 5.024,1.92, 5.024,4.288c0.00,2.352-2.256,4.288-5.024,4.288L 204.80,434.784 
	c-0.128,0.00-0.336-0.048-0.576-0.112c-0.016,0.00-0.496-0.112-0.528-0.112c-0.80-0.176-1.648,0.208-2.096,0.912
	c-1.888,2.992-3.664,6.08-5.472,9.456c-0.336,0.624-0.32,1.376, 0.048,2.00c 0.368,0.608, 1.008,0.976, 1.728,0.976l 38.72,0.00 
	c 2.768,0.00, 5.024,1.92, 5.024,4.288c0.00,2.368-2.256,4.288-5.024,4.288l-42.416,0.00 c-0.464,0.00-0.944-0.128-1.568-0.304
	c-0.976-0.288-2.016,0.224-2.416,1.168c-1.52,3.664-2.704,7.008-3.632,9.984c-0.176-40.144, 14.896-70.768, 47.696-97.936
	c 0.464-0.368, 0.72-0.944, 0.736-1.536c0.00-0.608-0.272-1.168-0.72-1.552c-18.24-15.36-29.744-28.80-36.912-40.80L 94.816,325.504 
	c-53.344,0.00-96.752-43.408-96.752-96.752l0.00-9.424 c0.00-53.36, 43.392-96.768, 96.752-96.768l 102.608,0.00 c 7.152-11.984, 18.656-25.424, 36.896-40.80
	c 0.448-0.384, 0.72-0.96, 0.704-1.552c0.00-0.608-0.272-1.168-0.72-1.552c-32.80-27.168-47.872-57.792-47.696-97.936
	c 0.928,2.96, 2.112,6.32, 3.632,9.968c 0.384,0.96, 1.424,1.488, 2.40,1.168c 0.56-0.16, 1.072-0.304, 1.568-0.304l 42.416,0.00 
	c 2.784,0.00, 5.024,1.92, 5.024,4.288c0.00,2.368-2.256,4.304-5.024,4.304l-38.72,0.00 c-0.704,0.00-1.36,0.352-1.728,0.976s-0.384,1.36-0.048,1.984
	c 1.792,3.376, 3.584,6.464, 5.472,9.456c 0.448,0.704, 1.248,1.04, 2.08,0.928c 0.032-0.016, 0.544-0.128, 0.576-0.144
	c 0.224-0.048, 0.432-0.096, 0.56-0.096l 31.824,0.00 c 2.784,0.00, 5.024,1.92, 5.024,4.288c0.00,2.368-2.256,4.288-5.024,4.288l-24.64,0.00 
	c-0.768,0.00-1.472,0.432-1.808,1.136c-0.336,0.672-0.256,1.504, 0.208,2.112c 2.976,3.872, 6.192,7.68, 9.536,11.376
	c 0.384,0.40, 0.928,0.656, 1.488,0.656l 15.20,0.00 c 2.784,0.00, 5.04,1.92, 5.04,4.288s-2.256,4.288-5.04,4.288l-2.512,0.00 
	c-0.832,0.00-1.584,0.512-1.888,1.296c-0.304,0.768-0.08,1.664, 0.528,2.224c 6.336,5.744, 12.576,10.80, 19.024,15.424l 1.072,0.816
	c 0.688,0.528, 1.648,0.528, 2.368,0.016l 1.104-0.848c 6.512-4.656, 12.736-9.696, 19.024-15.408c 0.608-0.56, 0.832-1.456, 0.528-2.224
	c-0.304-0.784-1.04-1.296-1.888-1.296l-2.512,0.00 c-2.784,0.00-5.056-1.92-5.056-4.288s 2.272-4.288, 5.056-4.288l 15.20,0.00 
	c 0.56,0.00, 1.104-0.256, 1.488-0.656c 3.408-3.712, 6.608-7.552, 9.536-11.376c 0.464-0.608, 0.544-1.44, 0.224-2.112
	c-0.336-0.704-1.04-1.136-1.808-1.136l-24.64,0.00 c-2.784,0.00-5.04-1.904-5.04-4.288c0.00-2.352, 2.256-4.288, 5.04-4.288l 31.824,0.00 
	c 0.144,0.00, 0.336,0.048, 0.576,0.112c 0.032,0.00, 0.528,0.112, 0.56,0.112c 0.80,0.192, 1.648-0.192, 2.08-0.912
	c 1.856-2.944, 3.648-6.032, 5.472-9.44c 0.336-0.64, 0.32-1.392-0.048-2.00c-0.368-0.608-1.024-0.976-1.728-0.976l-38.72,0.00 
	c-2.784,0.00-5.04-1.92-5.04-4.304c0.00-2.352, 2.256-4.288, 5.04-4.288l 42.432,0.00 c 0.464,0.00, 0.992,0.144, 1.584,0.32
	c 0.992,0.256, 2.016-0.256, 2.40-1.184c 1.504-3.648, 2.688-7.008, 3.616-9.952c 0.176,40.128-14.88,70.768-47.68,97.92
	c-0.464,0.368-0.736,0.944-0.736,1.552c0.00,0.592, 0.272,1.152, 0.72,1.552c 16.832,14.192, 29.04,27.68, 36.896,40.80l 102.592,0.00 
	c 53.36,0.00, 96.768,43.408, 96.768,96.768l0.00,9.424 C 510.064,282.064, 466.656,325.472, 413.296,325.472z M 236.624,333.92l-3.616,0.00 
	c-0.848,0.00-1.60,0.528-1.888,1.328c-0.288,0.784-0.048,1.68, 0.592,2.224c 5.904,4.992, 13.024,10.48, 21.184,16.304
	c 0.688,0.496, 1.632,0.496, 2.336,0.00c 8.176-5.824, 15.296-11.312, 21.20-16.304c 0.624-0.544, 0.864-1.44, 0.576-2.224
	c-0.304-0.80-1.04-1.328-1.888-1.328l-3.616,0.00 c-2.784,0.00-5.04-1.92-5.04-4.288c0.00-2.144, 1.904-3.84, 4.32-4.16l-33.408,0.00 
	c 2.40,0.32, 4.304,2.016, 4.304,4.16C 241.648,332.00, 239.392,333.92, 236.624,333.92z M 271.504,114.08l 3.60,0.00 c 0.848,0.00, 1.60-0.528, 1.888-1.328
	c 0.288-0.784, 0.048-1.664-0.576-2.224c-5.92-5.008-13.04-10.48-21.20-16.304c-0.704-0.496-1.648-0.496-2.336,0.00
	c-8.144,5.792-15.264,11.28-21.184,16.304c-0.64,0.544-0.88,1.44-0.592,2.224c 0.288,0.80, 1.04,1.328, 1.888,1.328l 3.616,0.00 
	c 2.784,0.00, 5.024,1.92, 5.024,4.304c0.00,2.144-1.888,3.84-4.304,4.16l 33.424,0.00 c-2.416-0.32-4.32-2.016-4.32-4.16
	C 266.448,116.00, 268.72,114.08, 271.504,114.08z M 477.808,219.296c0.00-35.584-28.944-64.512-64.512-64.512l-159.232,0.00 l0.00,138.432 l 159.232,0.00 
	c 35.584,0.00, 64.512-28.944, 64.512-64.496L 477.808,219.296 z" />
<glyph unicode="&#x3e;" d="M 124.496,241.104 C 121.60,238.96 117.904,237.888 113.392,237.872 L 87.792,237.872 L 87.792,264.752 L 111.44,264.752 C 113.696,264.752 115.872,264.56 117.968,264.176 C 120.064,263.808 121.904,263.152 123.52,262.176 C 125.136,261.216 126.416,259.872 127.392,258.16 C 128.368,256.448 128.848,254.24 128.848,251.568 C 128.848,246.736 127.392,243.248 124.496,241.104 ZM 115.328,220.672 C 120.80,220.672 125.20,219.408 128.528,216.88 C 131.856,214.352 133.52,210.144 133.52,204.256 C 133.52,201.232 133.008,198.768 131.984,196.848 C 130.976,194.912 129.60,193.376 127.888,192.256 C 126.16,191.136 124.176,190.32 121.92,189.856 C 119.68,189.36 117.312,189.12 114.848,189.12 L 87.808,189.12 L 87.808,220.672 L 115.328,220.672 ZM 489.52,180.592c 3.056,15.424, 24.208,29.424, 24.208,45.712c0.00,16.304-21.136,30.288-24.208,45.696c-3.168,15.888, 10.88,36.80, 4.80,51.408
		c-6.224,14.848-31.152,19.808-40.08,33.008c-8.976,13.296-4.112,38.016-15.488,49.264c-11.376,11.328-36.336,6.464-49.728,15.344
		c-13.328,8.88-18.304,33.60-33.28,39.776c-2.672,1.104-5.616,1.552-8.64,1.552c-11.92,0.00-26.048-6.768-38.144-6.768
		c-1.728,0.00-3.44,0.144-5.088,0.448c-15.552,3.056-29.68,24.016-46.128,24.016c-16.464,0.00-30.608-20.96-46.144-24.016
		c-1.648-0.304-3.328-0.448-5.072-0.448c-12.128,0.00-26.24,6.768-38.16,6.768c-3.04,0.00-5.952-0.448-8.64-1.552
		c-14.992-6.176-19.968-30.896-33.28-39.728c-13.44-8.88-38.336-4.016-49.712-15.312c-11.392-11.28-6.528-36.00-15.52-49.312
		C 52.304,343.28, 27.36,338.32, 21.136,323.472C 15.04,308.864, 29.056,287.904, 25.904,272.00c-3.056-15.408-24.192-29.392-24.192-45.696
		c0.00-16.304, 21.136-30.304, 24.192-45.712c 3.152-15.872-10.896-36.784-4.784-51.392c 6.208-14.848, 31.184-19.792, 40.08-32.992
		c 8.992-13.344, 4.096-38.016, 15.456-49.248c 11.392-11.36, 36.336-6.48, 49.744-15.36c 13.312-8.88, 18.288-33.616, 33.28-39.76
		c 2.672-1.104, 5.584-1.584, 8.624-1.584c 11.952,0.00, 26.064,6.784, 38.16,6.784c 1.744,0.00, 3.44-0.144, 5.088-0.432
		c 15.552-3.056, 29.696-24.032, 46.176-24.032c 16.448,0.00, 30.576,20.976, 46.128,24.032c 1.664,0.304, 3.36,0.432, 5.056,0.432
		c 12.128,0.00, 26.256-6.784, 38.16-6.784c 3.024,0.00, 5.952,0.464, 8.64,1.584c 14.96,6.16, 19.952,30.896, 33.296,39.712
		c 13.408,8.88, 38.32,4.00, 49.68,15.296c 11.392,11.28, 6.544,36.016, 15.52,49.312c 8.944,13.184, 33.808,18.16, 40.064,32.992
		C 500.352,143.744, 486.336,164.72, 489.52,180.592z M 155.408,187.728c-2.256-4.24-5.296-7.68-9.104-10.368s-8.16-4.672-13.04-5.952
		c-4.88-1.296-9.904-1.936-15.056-1.936L 62.528,169.472 l0.00,114.944 l 54.08,0.00 c 5.472,0.00, 10.464-0.48, 14.976-1.456c 4.512-0.96, 8.368-2.544, 11.584-4.752
		c 3.216-2.192, 5.712-5.12, 7.488-8.768c 1.76-3.648, 2.656-8.16, 2.656-13.52c0.00-5.808-1.328-10.624-3.952-14.48
		c-2.64-3.872-6.528-7.04-11.664-9.504c 7.088-2.032, 12.368-5.60, 15.856-10.704c 3.488-5.088, 5.248-11.248, 5.248-18.432
		C 158.80,196.992, 157.664,191.984, 155.408,187.728z M 263.104,169.472l-87.248,0.00 l0.00,114.944 l 85.968,0.00 l0.00-21.248 L 201.12,263.168 l0.00-24.64 l 55.696,0.00 l0.00-19.648 L 201.12,218.88 l0.00-28.176 l 61.984,0.00 
		L 263.104,169.472 z M 330.88,263.168l0.00-93.696 l-25.264,0.00 l0.00,93.696 l-34.448,0.00 l0.00,21.248 l 94.176,0.00 l0.00-21.248 L 330.88,263.168 z M 437.76,169.472l-8.688,25.60l-42.992,0.00 l-9.008-25.60l-25.424,0.00 
		l 43.472,114.944l 25.904,0.00 l 42.992-114.944L 437.76,169.472 zM 408.00,256.08 L 422.464,213.904 L 392.704,213.904 L 407.664,256.08 Z" />
<glyph unicode="&#x62;" d="M 410.576,304.08L 321.648,419.84c 1.584,3.776, 2.432,7.904, 2.432,12.256c0.00,17.68-14.32,32.00-32.00,32.00s-32.00-14.32-32.00-32.00s 14.32-32.00, 32.00-32.00
	c 1.424,0.00, 2.816,0.096, 4.192,0.288l 73.952-96.288L 149.936,304.096 l 73.952,96.288c 1.376-0.192, 2.752-0.288, 4.192-0.288c 17.68,0.00, 32.00,14.32, 32.00,32.00
	s-14.304,32.00-32.00,32.00s-32.00-14.32-32.00-32.00c0.00-4.336, 0.864-8.464, 2.432-12.256l-88.944-115.744L 4.08,304.096 l0.00-64.00 l 32.00,0.00 l 32.00-256.016l 384.00,0.00 l 32.00,256.016l 32.00,0.00 l0.00,64.00 L 410.576,304.096 z
	 M 164.08,48.096l-64.00,0.00 l0.00,63.984 l 64.00,0.00 L 164.08,48.096 z M 164.08,176.096l-64.00,0.00 l0.00,64.00 l 64.00,0.00 L 164.08,176.096 z M 292.08,48.096l-64.00,0.00 l0.00,63.984 l 64.00,0.00 L 292.08,48.096 z M 292.08,176.096l-64.00,0.00 l0.00,64.00 l 64.00,0.00 
	L 292.08,176.096 z M 420.08,48.096l-64.00,0.00 l0.00,63.984 l 64.00,0.00 L 420.08,48.096 z M 420.08,176.096l-64.00,0.00 l0.00,64.00 l 64.00,0.00 L 420.08,176.096 z" />
<glyph unicode="&#x55;" d="M 512.00,265.376c0.00,100.464-29.392,181.968-65.744,182.608C 446.40,447.984, 446.544,448.00, 446.688,448.00l-41.472,0.00 c0.00,0.00-93.408-73.168-233.632-101.872
	c-4.288-22.64-7.008-49.632-7.008-80.752s 2.736-58.096, 7.008-80.752c 140.224-28.704, 233.632-101.872, 233.632-101.872l 41.472,0.00 
	c-0.144,0.00-0.288,0.016-0.432,0.016C 482.608,83.408, 512.00,164.912, 512.00,265.376z M 445.824,100.096c-4.768,0.00-9.936,5.20-12.592,8.288
	c-6.416,7.52-12.608,19.184-17.904,33.76c-11.824,32.64-18.352,76.416-18.352,123.232c0.00,46.816, 6.512,90.576, 18.352,123.232
	c 5.28,14.592, 11.472,26.272, 17.904,33.76c 2.656,3.104, 7.808,8.288, 12.592,8.288c 4.768,0.00, 9.936-5.20, 12.592-8.288
	c 6.416-7.504, 12.608-19.168, 17.888-33.76c 11.824-32.64, 18.352-76.416, 18.352-123.232c0.00-46.816-6.512-90.576-18.352-123.232
	c-5.264-14.576-11.472-26.272-17.888-33.76C 455.76,105.28, 450.592,100.096, 445.824,100.096z M 129.904,265.376c0.00,25.968, 1.904,51.216, 5.52,74.544
	C 111.744,336.64, 86.96,334.752, 61.248,334.752c-33.536,0.00-33.536,0.00-33.536,0.00L0.00,287.408l0.00-44.08 l 27.728-47.344c0.00,0.00,0.00,0.00, 33.536,0.00
	c 25.68,0.00, 50.48-1.888, 74.176-5.168C 131.808,214.16, 129.904,239.392, 129.904,265.376z M 422.88,345.424c-4.528-24.352-6.944-51.648-6.944-80.064
	s 2.40-55.696, 6.944-80.064c 23.664,0.592, 42.768,36.208, 42.768,80.064C 465.664,309.232, 446.56,344.848, 422.88,345.424z M 184.08,158.912l-64.00,12.272
	l 40.928-160.768c 2.128-8.336, 10.368-12.512, 18.336-9.344l 59.28,23.728c 7.968,3.184, 11.168,11.984, 7.104,19.552L 184.08,158.912z" />
<glyph unicode="&#x41;" d="M 93.328,192.336l0.00-74.336 c0.00-32.00, 71.632-80.00, 160.00-80.00c 88.352,0.00, 159.984,48.00, 159.984,80.00l0.00,74.336 l-159.984-80.016L 93.328,192.336z M 253.328,422.00l-256.00-128.00l 256.00-128.00
	l 207.696,103.856l-15.696-135.856l 32.00,0.00 l0.00,144.00 l 31.984,16.00L 253.328,422.00z M 269.312,286.80c-12.80,0.00-23.184,10.384-23.184,23.20
	c0.00,12.816, 10.384,23.216, 23.184,23.216c 12.832,0.00, 23.20-10.384, 23.20-23.216C 292.512,297.184, 282.144,286.80, 269.312,286.80z" />
<glyph unicode="&#x6c;" d="M 495.952,66.512L 290.288,422.736c-18.848,32.656-49.696,32.656-68.544,0.00L 16.032,66.512c-18.848-32.672-3.424-59.392, 34.304-59.392l 411.328,0.00 
	C 499.376,7.12, 514.816,33.84, 495.952,66.512z M 294.752,348.112l-7.744-185.984l-62.00,0.00 L 217.248,348.112L 294.752,348.112 z M 256.00,38.128
	c-25.68,0.00-46.496,20.816-46.496,46.496s 20.816,46.496, 46.496,46.496s 46.496-20.816, 46.496-46.496S 281.68,38.128, 256.00,38.128z" />
<glyph unicode="&#x61;" d="M 8.00,38.00 L 8.00,69.008 L 504.00,69.008 L 504.00,38.00 L 442.00,38.00 L 442.00-24.00 L 380.00-24.00 L 380.00,38.00 L 132.00,38.00 L 132.00-24.00 L 70.00-24.00 L 70.00,38.00 L 8.00,38.00 Z M 411.008,316.992 L 504.00,100.00 L 8.00,100.00 L 100.992,316.992 L 256.00,316.992 L 411.008,316.992 Z M 178.496,348.00 C 135.712,348.00 100.992,334.128 100.992,316.992 L 100.992,440.992 C 100.992,458.128 114.864,472.00 132.00,472.00 L 380.00,472.00 C 397.152,472.00 411.008,458.128 411.008,440.992 L 411.008,316.992 C 411.008,334.128 376.304,348.00 333.504,348.00 C 290.704,348.00 256.00,334.128 256.00,316.992 C 256.00,334.128 221.296,348.00 178.496,348.00 Z" />
<glyph unicode="&#x2b;" d="M 303.184,112.096 L 309.936,60.864 L 202.064,60.864 L 208.816,112.096 ZM 426.08,480.00L 85.936,480.00 C 38.464,480.00,0.00,441.536,0.00,394.064L0.00,53.92 c0.00-47.456, 38.464-85.936, 85.936-85.936L 426.08-32.016 c 47.44,0.00, 85.92,38.48, 85.92,85.936L 512.00,394.064 
		C 512.00,441.536, 473.52,480.00, 426.08,480.00z M 94.208,385.792c0.00,14.816, 12.144,26.96, 26.976,26.96l 269.648,0.00 c 14.816,0.00, 26.96-12.144, 26.96-26.96L 417.792,224.00 
		c0.00-14.832-12.144-26.976-26.96-26.976L 121.184,197.024 c-14.832,0.00-26.976,12.144-26.976,26.976L 94.208,385.792 z M 471.696,44.192c0.00-4.928-4.256-8.96-9.44-8.96
		L 49.728,35.232 c-5.184,0.00-9.44,4.032-9.44,8.96l0.00,7.728 c0.00,4.944, 1.584,12.688, 3.504,17.28l 46.928,111.392c 1.92,4.592, 7.744,8.352, 12.944,8.352
		l 304.688,0.00 c 5.184,0.00, 11.008-3.76, 12.96-8.352l 46.912-111.392c 1.936-4.592, 3.504-12.336, 3.504-17.28L 471.728,44.192 zM 121.184,385.792L 390.832,385.792L 390.832,223.984L 121.184,223.984z" />
<glyph unicode="&#x28;" d="M 512.00,394.08C 512.00,441.536, 473.52,480.00, 426.064,480.00L 85.936,480.00 C 38.464,480.00,0.00,441.52,0.00,394.064L0.00,53.92 C0.00,6.464, 38.464-32.00, 85.936-32.00l0.00,0.00l0.00,0.00 l 327.376,0.00 l 12.752,0.00 
	C 473.536-32.00, 512.00,6.464, 512.00,53.936l0.00,10.992 L 512.00,394.08 L 512.00,394.08L 512.00,394.08z M 426.064-16.00l-16.256,0.00 l-139.856,139.872c-3.776-1.296-7.552-2.176-10.832-2.176
	l-68.128,0.032c-8.352,0.00-18.24,6.128-22.016,13.568L 116.88,239.52c-3.76,7.408-1.968,18.432, 3.968,24.304l 11.328,11.328
	c 5.904,5.872, 15.60,5.872, 21.488,0.00l 60.656-60.64c 5.904-5.904, 15.552-5.904, 21.456,0.00l 27.792,27.808c 5.92,5.936, 5.92,15.616,0.00,21.488
	l-60.64,60.64c-5.92,5.856-5.92,15.568,0.00,21.504l 11.376,11.328c 5.904,5.92, 16.832,7.664, 24.32,3.968l 105.984-52.144
	c 7.488-3.664, 15.392-13.616, 15.392-21.984l0.00-68.144 c0.00-3.248-2.672-7.008-3.92-10.752L 496.00,66.464l0.00-12.528 C 496.00,15.376, 464.624-16.00, 426.064-16.00z" />
<glyph unicode="&#x29;" d="M 512.00,393.904c0.00,47.392-38.448,85.824-85.84,85.824L 86.384,479.728 c-47.392,0.00-85.824-38.448-85.824-85.84l0.00-339.776 c0.00-47.408, 38.432-85.824, 85.824-85.824
	l0.00,0.00 l 29.36,0.00 l 38.272,0.00 l 42.512,0.00 l 63.376,0.00 l 155.36,0.00 l 10.88,0.00 c 12.448,0.00, 24.256,2.704, 34.944,7.472l 0.016,0.00 c 0.048,0.032, 0.112,0.064, 0.16,0.096
	c 2.96,1.312, 5.792,2.832, 8.56,4.464c 0.368,0.224, 0.736,0.432, 1.104,0.672c 2.656,1.632, 5.216,3.392, 7.664,5.28
	c 0.16,0.128, 1.808,0.224, 1.952,0.336c 14.416,11.312, 23.456,27.104, 31.44,45.328l0.00,0.00c0.00,0.016,0.00,0.016,0.00,0.016
	c0.00,3.28, 0.064,6.624, 0.544,10.032c 0.064,0.448-0.608,0.88-0.544,1.312c 0.432,3.536,0.00,7.104,0.00,10.768c0.00,0.016,0.00,0.032,0.00,0.048l0.00,0.016 
	l0.00,135.20 l0.00,79.408 l0.00,14.928 L 511.984,306.88 L 511.984,393.888 L 511.984,393.904 L 512.00,393.904z M 145.776,85.264c-24.16,0.00-43.792,19.584-43.792,43.808c0.00,24.176, 19.632,43.776, 43.792,43.776
	c 24.144,0.00, 43.776-19.616, 43.776-43.776C 189.552,104.848, 169.92,85.264, 145.776,85.264z M 106.08-15.728c-10.496,24.912-7.536,59.12, 7.008,97.616
	c 5.776-4.032, 12.304-6.928, 19.328-8.608c-14.432-39.008-14.992-70.832-2.112-88.992L 106.08-15.712 z M 496.016,54.128c0.00-11.008-2.624-21.392-7.184-30.672
	c-3.52,11.072-8.88,23.632-16.144,37.344c-9.232,17.44-21.056,35.968-34.912,54.976c-13.424-16.992-28.288-33.744-44.432-49.92
	c-12.784-12.768-25.952-24.704-39.312-35.808c 29.632-21.216, 56.528-36.384, 78.656-45.456c-2.16-0.192-4.336-0.32-6.528-0.32l-41.552,0.00 
	c-15.392,8.928-31.536,19.552-48.096,31.728c-15.68-11.984-31.488-22.496-47.104-31.728l-44.736,0.00 c 42.912,19.376, 90.40,53.088, 133.792,96.48
	c 16.992,16.96, 32.432,34.544, 46.24,52.40c-18.736,23.952-40.416,48.432-64.32,72.32c-17.376,17.376-34.352,32.928-50.736,46.752
	c-5.712-3.68-12.48-5.888-19.792-5.888c-20.224,0.00-36.64,16.384-36.64,36.624c0.00,3.776, 0.736,7.344, 1.792,10.768
	c-45.12,30.368-81.792,44.864-103.088,44.864c-7.744,0.00-13.44-1.808-16.992-5.328c-16.112-16.128, 1.888-68.848, 49.584-134.56
	c 11.12,13.36, 23.136,26.672, 36.224,39.744c 7.856,7.856, 15.92,15.28, 24.032,22.528c 3.152-6.448, 7.632-12.00, 13.104-16.56
	c-7.472-6.704-14.976-13.584-22.256-20.88c-14.048-14.048-26.704-28.128-38.128-42.08c 16.128-20.72, 34.992-42.464, 56.48-64.592
	c-5.84-4.368-10.64-9.856-14.288-16.224c-25.088,25.76-48.496,52.928-68.448,79.664c-0.336,0.16-0.672,0.368-1.024,0.544
	c 0.096,0.128, 0.224,0.272, 0.32,0.40c-52.336,70.40-80.368,137.632-50.864,167.20c 7.776,7.712, 18.608,11.664, 32.256,11.664
	c 28.512,0.00, 69.696-17.984, 115.184-48.672c 6.256,4.992, 14.112,8.112, 22.736,8.112c 20.224,0.00, 36.656-16.40, 36.656-36.624
	c0.00-5.12-1.056-10.00-2.976-14.416c 17.376-14.64, 34.864-30.608, 52.08-47.824c 22.336-22.336, 43.504-45.968, 62.336-69.60
	c 7.152,10.16, 13.76,20.336, 19.696,30.432c 5.68-4.08, 12.208-7.088, 19.184-8.864c-7.536-12.992-16.048-26.016-25.44-38.976
	c 18.304-24.496, 33.552-48.56, 44.624-70.912L 496.00,54.128 z M 252.736,73.888c0.00,18.576, 15.088,33.68, 33.664,33.68s 33.664-15.104, 33.664-33.68
	s-15.088-33.632-33.664-33.632S 252.736,55.312, 252.736,73.888z M 496.016,184.592c-1.52-0.16-3.024-0.288-4.592-0.288
	c-24.736,0.00-44.736,20.00-44.736,44.688c0.00,24.736, 20.00,44.768, 44.736,44.768c 1.568,0.00, 3.072-0.128, 4.592-0.288L 496.016,184.592 z M 496.016,287.008
	c-0.944,0.064-1.824,0.288-2.784,0.32c-0.272,16.08-4.672,29.024-13.376,37.664c-8.848,8.976-22.064,13.472-39.168,13.472
	c-29.296,0.00-66.00-13.232-104.464-35.92c-2.752,6.528-6.96,12.272-12.048,17.04c 42.464,25.20, 83.488,39.984, 116.512,39.984
	c 22.864,0.00, 41.104-6.64, 54.128-19.648c 0.432-0.432, 0.784-0.96, 1.20-1.408L 496.016,287.008 z" />
<glyph unicode="&#x2a;" d="M 239.888,355.424 C 248.592,354.208 256.08,349.648 260.992,342.56 C 266.016,335.296 267.696,326.32 265.68,317.328 C 262.016,301.088 247.424,289.296 231.008,289.296 C 229.504,289.296 227.984,289.408 226.464,289.616 C 217.744,290.832 210.256,295.392 205.36,302.464 C 200.32,309.744 198.672,318.704 200.688,327.712 C 204.688,345.44 221.888,358.00 239.888,355.424 ZM 248.80,278.016 L 224.336,169.264 L 245.648,165.344 L 237.808,127.232 L 154.704,139.824 L 163.328,178.128 L 183.248,175.344 L 198.80,244.48 L 178.176,247.344 L 188.32,280.544 ZM 368.832,304.96 L 390.832,170.96 L 343.824,176.96 ZM 423.792,480.00 C 471.248,480.00 509.728,441.52 509.728,394.064 L 509.728,381.312 L 509.728,105.36 L 509.728,53.92 C 509.728,6.464 471.264-31.984 423.808-31.984 L 411.024-31.984 L 407.616-31.984 L 390.224-31.984 L 83.664-31.984 C 39.168-31.984 2.576,1.808 -1.824,45.136 C -2.112,48.032 -2.272,50.944 -2.272,53.92 L -2.272,73.60 L -2.272,394.064 C -2.272,397.04 -2.112,399.968 -1.824,402.848 C 2.576,446.192 39.168,480.00 83.664,480.00 L 412.816,480.00 L 423.792,480.00 Z M 444.608,101.12 C 448.112,104.944 449.552,110.208 448.48,115.264 L 388.48,399.264 C 386.88,406.864 380.08,412.16 372.24,411.952 L 152.24,403.952 C 145.184,403.68 139.136,398.848 137.344,392.016 L 58.336,91.024 C 57.216,86.768 57.904,82.224 60.24,78.48 C 62.576,74.752 66.352,72.144 70.672,71.28 L 90.672,67.28 C 98.592,65.632 106.448,70.256 108.992,77.904 L 117.632,103.808 L 263.872,78.064 L 255.152,35.152 C 253.424,26.656 258.784,18.32 267.232,16.368 L 293.232,10.368 C 294.432,10.112 295.632,9.968 296.832,9.968 C 299.904,9.968 302.944,10.864 305.552,12.56 C 309.216,14.912 311.728,18.656 312.56,22.928 L 335.808,143.68 L 395.536,138.128 L 401.168,110.736 C 402.528,104.016 408.032,98.928 414.848,98.08 L 430.848,96.08 C 435.968,95.456 441.104,97.328 444.608,101.12 Z" />
</font>
</defs>
</svg>
